<?xml version="1.0" encoding="UTF-8"?>
<svg version="1.1" xmlns="http://www.w3.org/2000/svg" width="1536" height="1024">
<path d="M0 0 C506.88 0 1013.76 0 1536 0 C1536 337.92 1536 675.84 1536 1024 C1029.12 1024 522.24 1024 0 1024 C0 686.08 0 348.16 0 0 Z " fill="#FDFDFD" transform="translate(0,0)"/>
<path d="M0 0 C0.78004395 0.19867676 1.56008789 0.39735352 2.36376953 0.60205078 C25.13502713 6.57799513 46.18137092 16.42270791 64 32 C64.49564453 32.42474609 64.99128906 32.84949219 65.50195312 33.28710938 C76.54700821 42.80222974 85.21637542 53.51451765 93.1875 65.6875 C93.57454102 66.2757959 93.96158203 66.8640918 94.36035156 67.47021484 C96.10443395 70.21839267 97 71.67827686 97 75 C96.27635254 75.03440186 95.55270508 75.06880371 94.80712891 75.10424805 C52.73417262 77.25491034 20.84505356 93.06176556 -8 124 C-10.24722435 126.63857222 -12.43026955 129.31896552 -14.59765625 132.0234375 C-17.73053675 135.90515285 -20.95954711 139.70067661 -24.19482422 143.49707031 C-26.18689792 145.83939066 -28.12019895 148.16637293 -29.921875 150.66015625 C-37.42997081 159.11382052 -52.07762386 162.29579847 -62.5859375 164.8828125 C-89.34301566 171.55805841 -109.89236691 186.38193352 -129.45703125 205.38671875 C-146.31134258 221.40250713 -168.87613166 229.64813975 -192.06982422 229.34912109 C-208.93153547 228.74294072 -225.35980954 223.35346448 -238 212 C-239.07701172 211.09894531 -239.07701172 211.09894531 -240.17578125 210.1796875 C-243.90430344 207.03055176 -247.00459753 203.87484735 -250 200 C-245.08786484 208.53935212 -240.00448145 215.99551855 -233 223 C-232.36449219 223.63550781 -231.72898437 224.27101563 -231.07421875 224.92578125 C-216.6631636 238.3820667 -199.01400068 243.16665111 -179.8125 243.25 C-178.64396484 243.270625 -177.47542969 243.29125 -176.27148438 243.3125 C-168.6789474 243.34637635 -162.18836676 242.42781636 -155 240 C-154.29238525 239.77022461 -153.58477051 239.54044922 -152.85571289 239.30371094 C-137.50426784 234.14413604 -124.95267283 226.86403264 -113 216 C-112.22897949 215.30342285 -112.22897949 215.30342285 -111.44238281 214.59277344 C-109.09587603 212.47117146 -106.75942864 210.33989815 -104.4375 208.19140625 C-97.55080214 202 -97.55080214 202 -95 202 C-92.39400544 226.52842264 -92.39400544 226.52842264 -98.234375 234.02734375 C-101.30918448 237.26559826 -104.65900741 240.10375918 -108.2824707 242.7109375 C-110.06257676 243.96977118 -110.06257676 243.96977118 -111.57836914 245.68212891 C-112.04750732 246.11702637 -112.51664551 246.55192383 -113 247 C-115.3203125 246.7109375 -115.3203125 246.7109375 -118 246 C-126.40503954 245.16471381 -126.40503954 245.16471381 -134.0625 248.125 C-137.81492586 251.41981295 -139.74135365 254.55925271 -140.27734375 259.6171875 C-140.4636021 265.11553392 -140.2716629 269.37454555 -137 274 C-131.8238305 278.91072491 -127.37139345 279.30620227 -120.46875 279.21484375 C-115.7060591 278.80036907 -112.93628361 277.01430725 -109.75 273.5625 C-107.03133356 269.58159557 -105.86732417 267.15463216 -105.9375 262.3125 C-105.4998392 256.30136284 -102.326575 253.54550688 -98.03125 249.6171875 C-96 248 -96 248 -95 248 C-95 263.84 -95 279.68 -95 296 C-114.37255491 296.16043524 -114.37255491 296.16043524 -122.76757812 296.1953125 C-128.44815417 296.21902626 -134.12846722 296.24676731 -139.80883789 296.30175781 C-189.31714489 296.76835097 -189.31714489 296.76835097 -210 287 C-210.58942383 286.72172363 -211.17884766 286.44344727 -211.78613281 286.15673828 C-238.2056041 273.4553336 -257.44209304 252.39137575 -268 225 C-269.70702514 219.74677485 -270.89821223 214.41056492 -272 209 C-272.17289551 208.4121875 -272.34579102 207.824375 -272.52392578 207.21875 C-276.05511369 190.7616035 -274.12194334 169.46690979 -268 154 C-267.71060547 153.26797363 -267.42121094 152.53594727 -267.12304688 151.78173828 C-257.48297254 128.23928497 -240.12005818 107.26091114 -217 96 C-216.01 96 -215.02 96 -214 96 C-214 95.34 -214 94.68 -214 94 C-211.60813687 93.05123786 -209.21215934 92.11618793 -206.8125 91.1875 C-206.15830078 90.92646484 -205.50410156 90.66542969 -204.83007812 90.39648438 C-193.80038402 86.1623364 -183.18428523 84.515096 -171.37890625 84.66381836 C-169.3693859 84.68756635 -167.36118957 84.68432892 -165.3515625 84.67773438 C-155.49688585 84.7312924 -146.28703216 85.54679368 -137 89 C-135.83726562 89.3815625 -134.67453125 89.763125 -133.4765625 90.15625 C-113.53748996 96.97955599 -98.49214884 108.92846976 -85 125 C-89.87149006 115.62279729 -95.58201039 108.4283067 -103 101 C-103.79277344 100.195625 -104.58554687 99.39125 -105.40234375 98.5625 C-119.23369187 85.30649914 -138.05731663 76.55982208 -157 74 C-155.28245693 65.27248464 -148.49430828 57.71887798 -143 51 C-142.21238281 50.01515625 -141.42476562 49.0303125 -140.61328125 48.015625 C-135.84266642 42.10519409 -130.9775338 36.72350573 -125 32 C-124.05640625 31.23171875 -123.1128125 30.4634375 -122.140625 29.671875 C-88.47205148 2.66152141 -42.60377912 -10.9333655 0 0 Z " fill="#2B9AC8" transform="translate(797,193)"/>
<path d="M0 0 C15.96086715 13.86452763 27.27375078 32.64145734 31.8125 53.3125 C32.07196411 54.29802856 32.07196411 54.29802856 32.33666992 55.3034668 C33.90164368 61.51960091 34.16081272 67.48140549 34.125 73.875 C34.11936035 74.93275635 34.1137207 75.9905127 34.10791016 77.08032227 C33.71827483 102.43169427 24.78084964 125.46854695 7.8125 144.3125 C7.13832031 145.06917969 6.46414063 145.82585937 5.76953125 146.60546875 C-13.51806418 167.05104364 -40.96698259 178.42677226 -68.9151001 179.57406616 C-73.8320025 179.69030965 -78.74648394 179.65176937 -83.6640625 179.60546875 C-85.45437255 179.59985324 -87.2446873 179.59559243 -89.03500366 179.59260559 C-93.68080027 179.58131031 -98.32630232 179.55198094 -102.97198486 179.51849365 C-107.73909524 179.48745658 -112.50625458 179.47402941 -117.2734375 179.45898438 C-126.57825236 179.42709173 -135.88285141 179.37608825 -145.1875 179.3125 C-145.30429865 161.4059545 -145.39247104 143.49950785 -145.44656086 125.59266376 C-145.47234322 117.27819905 -145.50749411 108.96397101 -145.56469727 100.6496582 C-145.61453156 93.40293396 -145.64679079 86.15638112 -145.65794247 78.90949029 C-145.66446131 75.07217357 -145.67978219 71.2353472 -145.71615028 67.39818764 C-145.75011077 63.78575516 -145.76055324 60.17401456 -145.75303841 56.56143761 C-145.75506797 54.60495552 -145.78196308 52.64854866 -145.80960083 50.69226074 C-145.75888291 42.07344769 -145.75888291 42.07344769 -142.80401611 38.13825989 C-141.9405658 37.53575912 -141.07711548 36.93325836 -140.1875 36.3125 C-138.5398793 34.65412783 -136.89275903 32.99525835 -135.24609375 31.3359375 C-133.85016869 29.93311655 -132.45423577 28.53030333 -131.05786133 27.12792969 C-130.09993923 26.16494785 -129.14291214 25.2010749 -128.18676758 24.23632812 C-126.79226562 22.82965857 -125.39422035 21.42650448 -123.99609375 20.0234375 C-123.16907959 19.19118652 -122.34206543 18.35893555 -121.48999023 17.50146484 C-116.03191222 12.3125 -116.03191222 12.3125 -113.1875 12.3125 C-113.01334085 16.56198329 -112.90668873 20.81055155 -112.8125 25.0625 C-112.76222656 26.2690625 -112.71195313 27.475625 -112.66015625 28.71875 C-112.60516506 32.01822169 -112.61428545 35.06159576 -113.1875 38.3125 C-116.0625 40.9453125 -116.0625 40.9453125 -119.1875 42.3125 C-122.80817627 47.07654772 -123.89580194 50.8288616 -123.640625 56.81640625 C-122.88241839 60.99307885 -120.97879878 64.15592015 -118.1875 67.3125 C-117.34419632 67.8811528 -116.50089264 68.4498056 -115.6320343 69.03569031 C-113.1875 71.3125 -113.1875 71.3125 -112.53239441 74.17610168 C-112.51285454 75.83653755 -112.51285454 75.83653755 -112.49291992 77.53051758 C-112.46747604 78.78894974 -112.44203217 80.0473819 -112.41581726 81.34394836 C-112.41481121 82.71497581 -112.4155722 84.08600553 -112.41796875 85.45703125 C-112.406974 86.86944906 -112.39493925 88.28185912 -112.38191223 89.69425964 C-112.36101472 92.65423424 -112.35971883 95.61346624 -112.37084961 98.57348633 C-112.38252078 102.35403291 -112.33510205 106.13120708 -112.27138805 109.91113758 C-112.23064967 112.82910051 -112.22703749 115.74626056 -112.23378944 118.66446495 C-112.23159261 120.05709272 -112.21680376 121.449763 -112.18883324 122.84211159 C-111.99475174 133.75707752 -111.99475174 133.75707752 -114.96255493 137.62728882 C-117.12231445 139.47143555 -117.12231445 139.47143555 -119.27583313 140.90190125 C-121.47381989 142.52377242 -122.21561455 143.78365641 -123.1875 146.3125 C-123.83963318 151.68880724 -124.12019043 157.375664 -121.625 162.3125 C-118.18306543 166.54872717 -115.141434 168.84507488 -109.79296875 169.69140625 C-103.85197842 169.97431055 -98.94992742 168.98856725 -94.1875 165.3125 C-89.93084237 160.20451084 -89.55860928 155.69138213 -89.8046875 149.12109375 C-90.33367745 145.24003484 -91.4966969 143.14492431 -94.1875 140.3125 C-95.2107991 139.73238663 -96.23409821 139.15227325 -97.28840637 138.55458069 C-100.1875 136.3125 -100.1875 136.3125 -100.94267273 133.38401794 C-100.94530876 131.67883751 -100.94530876 131.67883751 -100.94799805 129.93920898 C-100.96368332 128.64784531 -100.97936859 127.35648163 -100.99552917 126.02598572 C-100.98147236 124.62017392 -100.96600157 123.21437565 -100.94921875 121.80859375 C-100.9507214 120.36417829 -100.95415198 118.91976366 -100.95942688 117.47535706 C-100.9637563 114.45133816 -100.94693665 111.42838645 -100.91479492 108.40454102 C-100.87497527 104.52787916 -100.88432647 100.65321401 -100.90902996 96.7764883 C-100.92320872 93.79522821 -100.91313102 90.81443509 -100.89551735 87.83320808 C-100.88966692 86.40387144 -100.89097091 84.97448703 -100.89954185 83.54516411 C-100.90752751 81.54885684 -100.8797648 79.55250289 -100.8503418 77.55639648 C-100.83985054 75.85240944 -100.83985054 75.85240944 -100.82914734 74.11399841 C-100.1875 71.3125 -100.1875 71.3125 -97.77107239 69.42225647 C-95.1875 68.3125 -95.1875 68.3125 -93.1875 68.3125 C-89.65599429 61.50173899 -88.29083562 56.01927361 -89.1875 48.3125 C-91.08584664 44.21207125 -93.02189815 42.36564938 -96.79711914 40.14379883 C-99.89621036 37.95644586 -100.12782355 37.58950508 -100.98217773 33.6237793 C-100.98107975 32.21094091 -100.94210613 30.79777182 -100.87109375 29.38671875 C-100.86118912 28.63912796 -100.85128448 27.89153717 -100.84107971 27.12129211 C-100.80205062 24.74548753 -100.71427742 22.37439437 -100.625 20 C-100.58987007 18.38483262 -100.55793397 16.76959241 -100.52929688 15.15429688 C-100.45232988 11.20523022 -100.33164952 7.25966223 -100.1875 3.3125 C-94.10357673 0.1002705 -88.17194468 -2.58739978 -81.5625 -4.5 C-80.84449219 -4.71591797 -80.12648438 -4.93183594 -79.38671875 -5.15429688 C-77.6560637 -5.67349339 -75.92213085 -6.18174535 -74.1875 -6.6875 C-78.40980381 -9.79650105 -82.09246638 -10.19812079 -87.1875 -10.125 C-87.941521 -10.11597656 -88.69554199 -10.10695313 -89.47241211 -10.09765625 C-106.6439894 -9.57383311 -123.03913577 -0.20168852 -136.1875 10.3125 C-136.8371875 10.82167969 -137.486875 11.33085937 -138.15625 11.85546875 C-141.11431229 14.20781822 -141.11431229 14.20781822 -143.1875 17.3125 C-143.8475 17.3125 -144.5075 17.3125 -145.1875 17.3125 C-145.1875 10.3825 -145.1875 3.4525 -145.1875 -3.6875 C-129.90925628 -12.57665998 -114.53926507 -20.72971445 -97.1875 -24.6875 C-95.74697266 -25.02394531 -95.74697266 -25.02394531 -94.27734375 -25.3671875 C-59.95349812 -31.96966637 -26.51577324 -22.05140125 0 0 Z " fill="#F58925" transform="translate(976.1875,309.6875)"/>
<path d="M0 0 C11.83875 -0.061875 23.6775 -0.12375 35.875 -0.1875 C39.59507324 -0.21481201 43.31514648 -0.24212402 47.14794922 -0.27026367 C51.73657227 -0.28381348 51.73657227 -0.28381348 53.89358521 -0.28633118 C55.38067325 -0.29089859 56.86775111 -0.30136703 58.35476685 -0.31672668 C66.97756676 -0.40123949 74.87026166 -0.28070136 83 3 C83.96292969 3.37640625 84.92585937 3.7528125 85.91796875 4.140625 C94.37238032 8.27324615 99.85385266 13.54823811 104 22 C106.65867493 30.19014626 105.91316475 40.06177083 102.34375 47.8125 C100.09718454 51.46969959 97.20872482 54.19329638 94 57 C92.9931431 57.99309576 91.9909234 58.99100505 91 60 C92.7634375 60.7734375 92.7634375 60.7734375 94.5625 61.5625 C102.19696442 65.44717448 106.85395217 71.00937735 110.11328125 78.9140625 C112.73960326 88.05412588 111.65513134 96.78955564 107.60546875 105.30859375 C101.81483481 115.01600685 93.00914529 119.89009354 82.27270508 122.6184082 C73.94248419 124.46754253 65.80833351 124.37905222 57.32421875 124.29296875 C55.8481887 124.28854417 54.37215389 124.28549212 52.89611816 124.28381348 C47.49317249 124.26824384 42.09032835 124.22636102 36.6875 124.1875 C24.580625 124.125625 12.47375 124.06375 0 124 C0 83.08 0 42.16 0 0 Z " fill="#2380B5" transform="translate(733,607)"/>
<path d="M0 0 C10.498125 -0.04125 20.99625 -0.0825 31.8125 -0.125 C35.10581299 -0.14320801 38.39912598 -0.16141602 41.79223633 -0.18017578 C44.43049965 -0.18602226 47.06876479 -0.19111745 49.70703125 -0.1953125 C50.37739914 -0.20053925 51.04776703 -0.20576599 51.7384491 -0.21115112 C67.67160282 -0.32897868 83.90930958 1.47732859 96 13 C105.35246478 23.4389698 106.6159419 34.41550177 106.13183594 47.98242188 C105.56075368 56.72209555 101.39406149 65.68009988 95.1484375 71.8203125 C90.53841632 75.47526953 85.45192474 77.85456665 80 80 C83.00691348 85.60848323 86.54080461 90.46608138 90.5 95.4375 C91.74452493 97.02001967 92.98799269 98.6033712 94.23046875 100.1875 C94.85614746 100.98414063 95.48182617 101.78078125 96.12646484 102.6015625 C99.0573295 106.35355812 101.94391019 110.13776101 104.8125 113.9375 C105.32167969 114.60515381 105.83085938 115.27280762 106.35546875 115.96069336 C108.35835124 118.62232777 109.93908176 120.81724529 111 124 C85.9066312 126.9884581 85.9066312 126.9884581 78.41455078 122.42529297 C74.0847354 118.18753603 71.2905779 113.03282523 68.49755859 107.70410156 C65.99033935 103.17688273 62.84989802 99.13291384 59.75 95 C58.67841006 93.52364296 57.61038817 92.04468584 56.546875 90.5625 C56.10182617 89.94503906 55.65677734 89.32757812 55.19824219 88.69140625 C54.10417687 87.14705326 53.0498359 85.57475384 52 84 C49.19189856 83.48895078 49.19189856 83.48895078 45.8984375 83.48828125 C44.80708496 83.45516846 43.71573242 83.42205566 42.59130859 83.38793945 C41.19992676 83.36304443 39.80854492 83.33814941 38.375 83.3125 C31.754375 83.1578125 31.754375 83.1578125 25 83 C25 96.53 25 110.06 25 124 C16.75 124 8.5 124 0 124 C0 83.08 0 42.16 0 0 Z " fill="#F2882A" transform="translate(997,607)"/>
<path d="M0 0 C7.59 0 15.18 0 23 0 C31.3048356 9.49124068 31.3048356 9.49124068 33.66015625 13.99609375 C37.18953546 20.45362963 41.24672158 26.47640741 45.375 32.5625 C46.65456296 34.50069693 47.93323592 36.43948176 49.2109375 38.37890625 C52.40850939 43.1823698 55.75827202 47.85570046 59.18847656 52.49536133 C61.50351894 55.69617261 63.65161072 58.98940007 65.7734375 62.3203125 C66.9097341 64.14595044 66.9097341 64.14595044 69 65 C69.23017822 64.48985352 69.46035645 63.97970703 69.69750977 63.45410156 C71.50337587 60.05155871 73.67436578 56.91393406 75.83984375 53.734375 C76.32143448 53.02331604 76.80302521 52.31225708 77.29920959 51.57965088 C78.84304598 49.30155825 80.39027851 47.0257945 81.9375 44.75 C82.94356976 43.26576759 83.94943105 41.78139384 84.95507812 40.296875 C85.95816629 38.81759505 86.9614214 37.33842829 87.96484375 35.859375 C88.46194855 35.12650269 88.95905334 34.39363037 89.47122192 33.6385498 C91.9970103 29.92197492 94.53881406 26.21795646 97.11083984 22.53320312 C97.8599337 21.45646332 97.8599337 21.45646332 98.62416077 20.35797119 C99.56553794 19.00689992 100.51077669 17.6585073 101.4606781 16.31341553 C103.41626098 13.5035489 105.02484316 10.94381499 106.41674805 7.79589844 C107.75 5 107.75 5 112 1 C119.59 1 127.18 1 135 1 C135 41.92 135 82.84 135 125 C126.75 125 118.5 125 110 125 C109.67 98.93 109.34 72.86 109 46 C105.37 51.28 101.74 56.56 98 62 C95.27406417 65.91899782 92.54573706 69.83611759 89.8125 73.75 C84.88855954 80.81045946 80.00496811 87.88692776 75.28515625 95.0859375 C73.38973763 97.9089014 73.38973763 97.9089014 70.77734375 98.51953125 C67.54400052 98.85309486 65.15297955 98.83598516 62 98 C58.99971876 95.01076952 57.11272589 91.53604514 55.06738281 87.84765625 C53.19332599 84.60363475 51.02091471 81.56801149 48.875 78.5 C47.94491747 77.151314 47.01524434 75.8023456 46.0859375 74.453125 C42.57200993 69.37514157 39.03867739 64.31075823 35.5 59.25 C34.9004248 58.39212891 34.30084961 57.53425781 33.68310547 56.65039062 C33.11736816 55.84279297 32.55163086 55.03519531 31.96875 54.203125 C31.46794922 53.48801758 30.96714844 52.77291016 30.45117188 52.03613281 C29.00022955 50.00032209 27.49997107 47.99996143 26 46 C25.67 72.4 25.34 98.8 25 126 C16.75 126 8.5 126 0 126 C0 84.42 0 42.84 0 0 Z " fill="#2276AF" transform="translate(577,606)"/>
<path d="M0 0 C0.20562492 4.12424849 0.32840389 8.24715926 0.4375 12.375 C0.52547852 14.10943359 0.52547852 14.10943359 0.61523438 15.87890625 C0.79159181 24.79755345 -1.36285424 29.25652554 -7 36 C-8.01272685 37.44462274 -9.00864363 38.90123022 -9.984375 40.37109375 C-10.44457031 41.04720703 -10.90476562 41.72332031 -11.37890625 42.41992188 C-12.31061765 43.7909445 -13.24023181 45.16339421 -14.16796875 46.53710938 C-14.62300781 47.20419922 -15.07804688 47.87128906 -15.546875 48.55859375 C-15.94745117 49.14954834 -16.34802734 49.74050293 -16.76074219 50.34936523 C-18.95270679 53.2689619 -20.64183212 54.83583972 -24 56.375 C-27.50370573 58.2728406 -28.15117498 59.53345309 -30 63 C-34.8129197 70.25757733 -40.61883193 75.75333871 -47.8125 80.625 C-51.75829203 83.56500191 -53.68901707 85.94359033 -54.43359375 90.8671875 C-54.44217146 97.4720263 -54.22952589 101.79442967 -50 107 C-43.43706965 112.33238091 -40.49664116 111 -31 111 C-31 130.14 -31 149.28 -31 169 C-43.87 169 -56.74 169 -70 169 C-70.0093457 166.05223633 -70.01869141 163.10447266 -70.02832031 160.06738281 C-70.06206268 150.33626385 -70.11759625 140.60535759 -70.18390274 130.87440872 C-70.22343954 124.9735527 -70.25559764 119.0728473 -70.27099609 113.171875 C-70.28612171 107.47883259 -70.32049458 101.7862041 -70.36830902 96.09334564 C-70.38316509 93.91964055 -70.39104342 91.74587637 -70.39188385 89.57212067 C-70.39424251 86.53102807 -70.42123387 83.49108966 -70.45410156 80.45019531 C-70.4490712 79.54820404 -70.44404083 78.64621277 -70.43885803 77.71688843 C-70.50198589 72.72894339 -70.50198589 72.72894339 -72.8739624 68.43670654 C-75.52337298 66.64632169 -76.86369431 66.43707334 -80 67 C-82.12731908 68.61227469 -82.91094027 69.49927758 -83.38311005 72.15396786 C-83.38683876 72.99405675 -83.39056747 73.83414564 -83.39440918 74.69969177 C-83.40575897 75.66566284 -83.41710876 76.63163391 -83.42880249 77.62687683 C-83.42587189 78.68514175 -83.42294128 79.74340668 -83.41992188 80.83374023 C-83.43262619 82.50725052 -83.43262619 82.50725052 -83.44558716 84.21456909 C-83.4690391 87.91269239 -83.46997734 91.61040163 -83.46875 95.30859375 C-83.47584656 97.87305367 -83.4835448 100.437512 -83.49182129 103.00196838 C-83.50528497 108.38132784 -83.50700691 113.76052463 -83.50097656 119.13989258 C-83.49433503 125.35728091 -83.51720243 131.57407609 -83.55429029 137.79134411 C-83.58867811 143.77308863 -83.59532492 149.75451788 -83.59120178 155.73637581 C-83.59289848 158.28134999 -83.60259341 160.8263316 -83.62034607 163.37124443 C-83.64241912 166.92693332 -83.6328915 170.48118232 -83.61523438 174.03686523 C-83.62849762 175.09310593 -83.64176086 176.14934662 -83.65542603 177.2375946 C-83.72015252 182.98934802 -83.72015252 182.98934802 -80.5604248 187.55531311 C-79.29301453 188.27043312 -79.29301453 188.27043312 -78 189 C-75.03170698 192.89909108 -72.71152834 197.10062979 -72.4375 202.0625 C-73.48157156 209.3710009 -76.38214714 214.27695137 -82.22265625 218.80859375 C-87.27856571 222.19771987 -91.73597307 222.29648095 -97.6015625 221.5390625 C-103.30945231 220.25618173 -106.74648936 216.64787234 -110 212 C-113.00529396 207.00925914 -112.71530866 201.6429905 -112 196 C-110.17477814 191.42603765 -107.38546666 187.41956781 -103 185 C-102.34 185 -101.68 185 -101 185 C-101 145.73 -101 106.46 -101 66 C-84.22934233 58.17369309 -84.22934233 58.17369309 -77.625 56.4375 C-70.85780225 54.59211569 -64.28132814 52.41324165 -57.70751953 49.96655273 C-53.82835417 48.5467801 -50.1337577 47.31845245 -46 47 C-45.34 47.66 -44.68 48.32 -44 49 C-41 49.33333333 -41 49.33333333 -38 49 C-37.01 48.01 -37.01 48.01 -36 47 C-36.02392975 44.98525281 -36.02392975 44.98525281 -36.3125 42.75 C-36.3515625 40.27734375 -36.3515625 40.27734375 -36 38 C-33.1875 35.3125 -33.1875 35.3125 -31.2421875 33.8984375 C-28.31133034 31.41691035 -26.11529768 28.48407627 -23.8125 25.4375 C-4.38324387 0 -4.38324387 0 0 0 Z " fill="#F58725" transform="translate(817,319)"/>
<path d="M0 0 C1.12591553 0.00523682 2.25183105 0.01047363 3.41186523 0.01586914 C4.62680664 0.0190918 5.84174805 0.02231445 7.09350586 0.02563477 C8.37290039 0.03401367 9.65229492 0.04239258 10.97045898 0.05102539 C12.2537207 0.05553711 13.53698242 0.06004883 14.85913086 0.06469727 C18.04211921 0.07652994 21.22501661 0.09301471 24.40795898 0.11352539 C29.07891114 9.23777439 33.39043346 18.42976123 37.40795898 27.86352539 C38.54762172 30.51944865 39.69067698 33.17390794 40.83374023 35.82836914 C41.12646317 36.50904953 41.4191861 37.18972992 41.72077942 37.89103699 C44.66440576 44.72813707 47.66535233 51.53949107 50.6762085 58.34719849 C51.59763 60.43093499 52.5178591 62.51519417 53.43774414 64.59960938 C56.22464911 70.91351008 59.01391167 77.22634316 61.81176758 83.53540039 C63.89849207 88.24108487 65.98025326 92.94894037 68.05923462 97.65805054 C68.87019506 99.49238364 69.68297885 101.32591181 70.49765015 103.15859985 C71.63646126 105.72097621 72.76897295 108.28605136 73.90014648 110.85180664 C74.24107834 111.61485107 74.58201019 112.37789551 74.93327332 113.1640625 C75.24573502 113.8761084 75.55819672 114.5881543 75.88012695 115.32177734 C76.15243134 115.93648392 76.42473572 116.55119049 76.70529175 117.18452454 C77.40795898 119.11352539 77.40795898 119.11352539 78.40795898 124.11352539 C69.82795898 124.11352539 61.24795898 124.11352539 52.40795898 124.11352539 C49.59734459 118.49229661 47.02378976 113.02618008 44.65795898 107.23852539 C44.34213867 106.48055664 44.02631836 105.72258789 43.70092773 104.94165039 C41.40795898 99.36308573 41.40795898 99.36308573 41.40795898 97.11352539 C21.27795898 97.11352539 1.14795898 97.11352539 -19.59204102 97.11352539 C-19.92204102 98.76352539 -20.25204102 100.41352539 -20.59204102 102.11352539 C-21.23947395 103.89602651 -21.93123018 105.66284013 -22.65844727 107.41430664 C-23.02139893 108.29513916 -23.38435059 109.17597168 -23.75830078 110.08349609 C-24.21906006 111.18653076 -24.67981934 112.28956543 -25.15454102 113.42602539 C-26.61891602 116.95290039 -28.08329102 120.47977539 -29.59204102 124.11352539 C-38.50204102 124.11352539 -47.41204102 124.11352539 -56.59204102 124.11352539 C-51.21768255 110.29374648 -45.38911464 96.72880887 -39.37402344 83.18066406 C-35.29813716 73.99757173 -31.28200228 64.79350429 -27.34204102 55.55102539 C-22.25220528 43.61717687 -17.04979 31.73600231 -11.80541992 19.86938477 C-10.65718897 17.26149121 -9.51853558 14.64971415 -8.38500977 12.03540039 C-8.05670166 11.27904297 -7.72839355 10.52268555 -7.39013672 9.7434082 C-6.79428935 8.36859401 -6.20024404 6.99299674 -5.60839844 5.61645508 C-3.23281026 0.1415896 -3.23281026 0.1415896 0 0 Z " fill="#235FA1" transform="translate(484.592041015625,606.886474609375)"/>
<path d="M0 0 C8.91 0 17.82 0 27 0 C33.38959989 12.26803179 38.93345573 24.84381697 44.43887329 37.52352905 C44.74392792 38.2260379 45.04898254 38.92854675 45.36328125 39.65234375 C45.66906097 40.35670563 45.9748407 41.0610675 46.28988647 41.78677368 C49.26584092 48.63157754 52.31194952 55.44369782 55.375 62.25 C60.46671162 73.57046123 65.52419043 84.90567158 70.5625 96.25 C70.90633728 97.02412231 71.25017456 97.79824463 71.60443115 98.5958252 C71.93976868 99.35085327 72.2751062 100.10588135 72.62060547 100.88378906 C72.94671814 101.61797058 73.27283081 102.3521521 73.60882568 103.10858154 C74.23749689 104.52472464 74.86564701 105.94109919 75.4932251 107.35772705 C76.76785878 110.23401491 78.04861432 113.10689177 79.35107422 115.97070312 C82 121.80043018 82 121.80043018 82 124 C73.09 124 64.18 124 55 124 C53.43009989 120.33520071 51.8624053 116.66957895 50.30029297 113.00146484 C49.76805615 111.75351727 49.23453322 110.5061174 48.69970703 109.25927734 C47.93185131 107.46856372 47.16897715 105.67571657 46.40625 103.8828125 C45.94541016 102.80402832 45.48457031 101.72524414 45.00976562 100.61376953 C44 98 44 98 44 96 C24.2 96.33 4.4 96.66 -16 97 C-21.445 110.365 -21.445 110.365 -27 124 C-35.91 124 -44.82 124 -54 124 C-52.21853267 118.65559801 -50.61972363 113.86640466 -48.3203125 108.83203125 C-47.81056885 107.70748535 -47.3008252 106.58293945 -46.77563477 105.42431641 C-46.23092529 104.23241699 -45.68621582 103.04051758 -45.125 101.8125 C-43.94612553 99.2136338 -42.7713709 96.61291881 -41.59765625 94.01171875 C-41.14799751 93.01603882 -41.14799751 93.01603882 -40.68925476 92.00024414 C-37.56940066 85.07513848 -34.56331129 78.10228866 -31.5625 71.125 C-26.54231521 59.46530215 -21.36728231 47.88196468 -16.12084961 36.32250977 C-10.64731885 24.25788482 -5.31402014 12.13607302 0 0 Z " fill="#EC7A2D" transform="translate(902,607)"/>
<path d="M0 0 C0.78004395 0.19867676 1.56008789 0.39735352 2.36376953 0.60205078 C25.13502713 6.57799513 46.18137092 16.42270791 64 32 C64.49564453 32.42474609 64.99128906 32.84949219 65.50195312 33.28710938 C74.14409401 40.73216149 81.23199584 48.83132102 88 58 C87.67 58.66 87.34 59.32 87 60 C86.13375 59.67 85.2675 59.34 84.375 59 C78.42663437 57.26200016 72.1302128 57.8613771 66 58 C63 58 63 58 61.02734375 56.28515625 C60.33769531 55.55167969 59.64804687 54.81820312 58.9375 54.0625 C56.26299207 51.13565586 56.26299207 51.13565586 53 49 C53 48.34 53 47.68 53 47 C52.46890625 46.76539063 51.9378125 46.53078125 51.390625 46.2890625 C48.91145677 44.9522561 46.73178822 43.36739948 44.48535156 41.67480469 C18.71386879 22.37157252 -14.65125144 13.699816 -46.58056641 17.95654297 C-68.24187046 21.18204414 -90.17207709 28.48122603 -107 43 C-108.29744141 44.11181641 -108.29744141 44.11181641 -109.62109375 45.24609375 C-114.30266456 49.28537283 -114.30266456 49.28537283 -118.45581055 53.83984375 C-120.94195267 56.79958982 -122.68481041 58.77121207 -126.58935547 59.45043945 C-129.53683031 59.42887504 -132.38386296 59.20574561 -135.3125 58.875 C-137.28744164 58.70204954 -139.26269381 58.53259793 -141.23828125 58.3671875 C-142.10493408 58.27550293 -142.97158691 58.18381836 -143.86450195 58.08935547 C-146.05373236 57.82510979 -146.05373236 57.82510979 -148 59 C-146.55905418 54.41593844 -143.94463371 51.40852771 -140.6875 48 C-140.21376953 47.49210937 -139.74003906 46.98421875 -139.25195312 46.4609375 C-136.23359397 43.24025331 -133.12378527 40.11855279 -130 37 C-129.484375 36.43796875 -128.96875 35.8759375 -128.4375 35.296875 C-123.05924704 29.50940714 -116.56564878 25.30416849 -110 21 C-108.97777344 20.31679687 -107.95554687 19.63359375 -106.90234375 18.9296875 C-76.01017426 -0.98814618 -35.91115644 -9.21584439 0 0 Z " fill="#51DBE8" transform="translate(797,193)"/>
<path d="M0 0 C0.72960937 -0.02900391 1.45921875 -0.05800781 2.2109375 -0.08789062 C7.80939555 -0.15287273 10.976299 1.20314458 15.625 4.3125 C11.09631582 6.91230018 5.996637 7.99419798 1 9.36914062 C-0.09441406 9.67948242 -0.09441406 9.67948242 -1.2109375 9.99609375 C-1.86626465 10.17712646 -2.5215918 10.35815918 -3.19677734 10.54467773 C-6.05704977 11.55292216 -8.68447567 12.92024596 -11.375 14.3125 C-11.52349962 19.08124164 -11.63228023 23.84863415 -11.70458984 28.61914062 C-11.73473462 30.2411239 -11.77565941 31.86294452 -11.82763672 33.484375 C-11.90056613 35.81811611 -11.93447489 38.14970111 -11.9609375 40.484375 C-11.99190521 41.20743835 -12.02287292 41.93050171 -12.05477905 42.67547607 C-12.12087006 45.00632236 -12.12087006 45.00632236 -11.375 48.3125 C-8.56879243 50.71298343 -8.56879243 50.71298343 -5.375 52.3125 C-0.7226045 57.59359759 -0.07885821 60.63532092 -0.16015625 67.5546875 C-0.55248689 72.59078629 -2.57728496 75.39205957 -5.8125 79.125 C-8.375 81.3125 -8.375 81.3125 -12.375 82.3125 C-12.375 103.7625 -12.375 125.2125 -12.375 147.3125 C-10.725 147.9725 -9.075 148.6325 -7.375 149.3125 C-4.21512276 152.24895158 -1.57117318 155.4908919 -1.1015625 159.8515625 C-0.89963505 165.98705052 -1.02542787 170.65341142 -4.76953125 175.6875 C-8.95723664 179.92615071 -13.48000147 181.52184341 -19.375 181.875 C-24.72680427 181.62799365 -28.41891697 179.88573628 -32.375 176.3125 C-36.59194092 171.14674737 -37.00489547 166.72253898 -36.7578125 160.1171875 C-36.2290188 156.24296427 -35.02422486 154.17087419 -32.375 151.3125 C-31.35317627 150.72911865 -30.33135254 150.1457373 -29.27856445 149.54467773 C-26.91819657 147.57765184 -26.41064508 146.4910091 -25.79989624 143.43240356 C-25.56159135 139.62699431 -25.51309151 135.84549573 -25.54296875 132.03515625 C-25.5363813 130.62177199 -25.52816173 129.20839449 -25.51838684 127.79502869 C-25.50504995 124.83667984 -25.5138451 121.87941628 -25.5378418 118.92114258 C-25.5664105 115.13960178 -25.53638556 111.3611803 -25.48920727 107.57991886 C-25.45993865 104.66196865 -25.4637677 101.74475729 -25.47722816 98.82671928 C-25.47937422 97.43331914 -25.47094056 96.03985924 -25.45149803 94.64659309 C-25.12141264 87.00329808 -25.12141264 87.00329808 -27.92520142 80.18527222 C-29.67111909 78.70160266 -31.44693954 77.53901686 -33.375 76.3125 C-36.87584822 71.34355414 -37.35665537 66.21152162 -36.375 60.3125 C-34.45508233 55.79459849 -31.75548706 51.72932045 -27.375 49.3125 C-26.715 49.3125 -26.055 49.3125 -25.375 49.3125 C-25.375 40.7325 -25.375 32.1525 -25.375 23.3125 C-32.68991964 28.93495738 -32.68991964 28.93495738 -39.33984375 35.046875 C-40.15904297 35.86800781 -40.97824219 36.68914062 -41.82226562 37.53515625 C-42.64404297 38.36917969 -43.46582031 39.20320313 -44.3125 40.0625 C-45.16134766 40.91199219 -46.01019531 41.76148438 -46.88476562 42.63671875 C-51.45780458 47.20092827 -51.45780458 47.20092827 -55.375 52.3125 C-56.035 52.3125 -56.695 52.3125 -57.375 52.3125 C-57.375 44.3925 -57.375 36.4725 -57.375 28.3125 C-56.715 28.3125 -56.055 28.3125 -55.375 28.3125 C-55.16359375 27.75046875 -54.9521875 27.1884375 -54.734375 26.609375 C-52.91707013 23.53875642 -50.43440739 21.67079208 -47.625 19.5625 C-47.05007813 19.12784424 -46.47515625 18.69318848 -45.8828125 18.24536133 C-32.26927354 8.17333149 -17.20653813 0.2256102 0 0 Z " fill="#FDFAF3" transform="translate(888.375,298.6875)"/>
<path d="M0 0 C2.60599456 24.52842264 2.60599456 24.52842264 -3.234375 32.02734375 C-6.30918448 35.26559826 -9.65900741 38.10375918 -13.2824707 40.7109375 C-15.06257676 41.96977118 -15.06257676 41.96977118 -16.57836914 43.68212891 C-17.04750732 44.11702637 -17.51664551 44.55192383 -18 45 C-20.3203125 44.7109375 -20.3203125 44.7109375 -23 44 C-31.40503954 43.16471381 -31.40503954 43.16471381 -39.0625 46.125 C-42.81492586 49.41981295 -44.74135365 52.55925271 -45.27734375 57.6171875 C-45.4636021 63.11553392 -45.2716629 67.37454555 -42 72 C-39.5609294 74.20142332 -39.5609294 74.20142332 -37 76 C-35.9826127 76.98230498 -34.97403883 77.97469597 -34 79 C-39.75 77.25 -39.75 77.25 -42 75 C-44.66194913 74.98206653 -44.66194913 74.98206653 -47.75 75.375 C-72.05998528 77.59472363 -97.18768171 74.28658897 -116.8125 58.625 C-121.74937264 54.35467842 -126.74850807 49.96532268 -131 45 C-131 44.34 -131 43.68 -131 43 C-131.66 43 -132.32 43 -133 43 C-134.20507812 41.41113281 -134.20507812 41.41113281 -135.53125 39.203125 C-136.01207031 38.4090625 -136.49289062 37.615 -136.98828125 36.796875 C-137.48714844 35.95640625 -137.98601563 35.1159375 -138.5 34.25 C-138.99886719 33.425 -139.49773438 32.6 -140.01171875 31.75 C-146.10392429 21.62354575 -146.10392429 21.62354575 -145.625 18.75 C-145.41875 18.1725 -145.2125 17.595 -145 17 C-144.34 17.66 -143.68 18.32 -143 19 C-142.29875 19.226875 -141.5975 19.45375 -140.875 19.6875 C-138.08266187 20.96226306 -136.65170292 22.12520705 -134.4375 24.1875 C-120.28431487 36.91213934 -103.33865904 41.1695826 -84.8125 41.25 C-83.64396484 41.270625 -82.47542969 41.29125 -81.27148438 41.3125 C-73.6789474 41.34637635 -67.18836676 40.42781636 -60 38 C-58.93857788 37.65533691 -58.93857788 37.65533691 -57.85571289 37.30371094 C-42.50426784 32.14413604 -29.95267283 24.86403264 -18 14 C-17.22897949 13.30342285 -17.22897949 13.30342285 -16.44238281 12.59277344 C-14.09587603 10.47117146 -11.75942864 8.33989815 -9.4375 6.19140625 C-2.55080214 0 -2.55080214 0 0 0 Z " fill="#42567E" transform="translate(702,395)"/>
<path d="M0 0 C0.33 0 0.66 0 1 0 C1 44.55 1 89.1 1 135 C2.32 135.33 3.64 135.66 5 136 C6.8515625 137.26953125 6.8515625 137.26953125 8.625 138.8125 C9.21539063 139.31394531 9.80578125 139.81539062 10.4140625 140.33203125 C14.7413633 144.88315795 14.49168899 149.70596967 14.36328125 155.734375 C13.82702488 160.55491616 12.52895454 163.65262478 9 167 C3.23172724 171.03680152 -2.00714385 173.01509202 -9 172 C-15.17937012 170.01043008 -19.40382213 166.363158 -23 161 C-24.84042608 155.47872177 -25.23168963 148.93675251 -22.953125 143.50390625 C-21.19274151 140.68211507 -19.35152498 138.35152498 -17 136 C-16.79073634 133.1611019 -16.70636297 130.418982 -16.70947266 127.578125 C-16.70275543 126.70632095 -16.69603821 125.83451691 -16.68911743 124.93629456 C-16.67005154 122.04080567 -16.66620785 119.14554785 -16.6640625 116.25 C-16.65763665 114.23657129 -16.65090845 112.22314353 -16.64389038 110.2097168 C-16.63189342 105.9794702 -16.62821165 101.74930538 -16.62939453 97.51904297 C-16.62959697 92.1166332 -16.60238347 86.71475394 -16.56785011 81.31246948 C-16.54552264 77.14810822 -16.54155891 72.98387297 -16.54261398 68.81945801 C-16.54026341 66.82928655 -16.53147074 64.83911134 -16.51594925 62.84899902 C-16.4229252 49.6799752 -16.48529973 39.04329473 -26 29 C-25.25556641 28.27296875 -25.25556641 28.27296875 -24.49609375 27.53125 C-20.44772095 23.53665065 -16.57373266 19.4652592 -12.8671875 15.15234375 C-9.94300975 11.78158655 -6.92497292 8.49605465 -3.91796875 5.19921875 C-1.87480508 2.95177481 -1.87480508 2.95177481 0 0 Z " fill="#F07229" transform="translate(816,369)"/>
<path d="M0 0 C0.66 0 1.32 0 2 0 C2.495 1.216875 2.99 2.43375 3.5 3.6875 C6.1416897 8.85163647 8.66737643 10.62994508 14 13 C17.96 13 21.92 13 26 13 C26 32.14 26 51.28 26 71 C13.13 71 0.26 71 -13 71 C-13 49.88 -13 28.76 -13 7 C-9.04 5.02 -5.08 3.04 -1 1 C-0.67 0.67 -0.34 0.34 0 0 Z " fill="#EC6629" transform="translate(760,417)"/>
<path d="M0 0 C9.0646875 -0.12375 9.0646875 -0.12375 18.3125 -0.25 C20.19622314 -0.28641602 22.07994629 -0.32283203 24.02075195 -0.36035156 C43.65562438 -0.58265917 43.65562438 -0.58265917 50.68896484 5.44824219 C55.37585839 10.74328225 56.45964217 15.2251883 56.3125 22.11328125 C55.67732059 27.98075105 53.5416292 32.95091101 49.125 36.9375 C43.0501174 40.94692251 37.71661501 41.28194314 30.6640625 41.1953125 C29.88377686 41.19329834 29.10349121 41.19128418 28.29956055 41.18920898 C25.40797985 41.17881065 22.5164835 41.15088841 19.625 41.125 C9.910625 41.063125 9.910625 41.063125 0 41 C0 27.47 0 13.94 0 0 Z " fill="#FDFCFA" transform="translate(1022,628)"/>
<path d="M0 0 C5.78084876 -0.09237042 11.55908617 -0.17184284 17.34008789 -0.21972656 C19.30209074 -0.23970918 21.26403505 -0.26690484 23.22583008 -0.30175781 C48.31030881 -0.73589997 48.31030881 -0.73589997 56.125 6.625 C60.06313694 11.61330679 59.57964613 16.84125989 59 23 C56.85182711 27.53503166 54.55458844 29.92973253 50 32 C43.87103777 33.8408812 38.40755541 34.27032872 32.03125 34.1953125 C30.64987854 34.19106766 30.64987854 34.19106766 29.24060059 34.18673706 C26.32692948 34.17562775 23.41357669 34.15054078 20.5 34.125 C18.5130253 34.11495823 16.52604574 34.10583448 14.5390625 34.09765625 C9.69248989 34.07742848 4.84659723 34.03826261 0 34 C0 22.78 0 11.56 0 0 Z " fill="#F9FAFC" transform="translate(759,677)"/>
<path d="M0 0 C5.05017577 -0.06942706 10.09865036 -0.12898752 15.14892578 -0.16479492 C16.86154842 -0.1797446 18.57413371 -0.20011186 20.28662109 -0.22631836 C44.57167459 -0.58825224 44.57167459 -0.58825224 50.79272461 4.45263672 C54.55649333 8.79681508 55.34761097 12.13013926 55.28515625 17.6796875 C54.74551462 22.07074402 52.26866015 24.77508675 49.1875 27.75 C43.22463333 31.15735238 37.25120066 31.27757578 30.56640625 31.1953125 C29.68846909 31.1924826 28.81053192 31.18965271 27.9059906 31.18673706 C25.12468355 31.17561598 22.34370836 31.15052672 19.5625 31.125 C17.66732239 31.11495975 15.77213968 31.10583573 13.87695312 31.09765625 C9.25107393 31.0774117 4.62590483 31.03824818 0 31 C0 20.77 0 10.54 0 0 Z " fill="#F6F9FB" transform="translate(758,627)"/>
<path d="M0 0 C0.66 0 1.32 0 2 0 C14.93724061 28.59734282 14.93724061 28.59734282 19.3125 39.1875 C19.59552979 39.86804443 19.87855957 40.54858887 20.17016602 41.24975586 C22 45.74363893 22 45.74363893 22 48 C8.14 48 -5.72 48 -20 48 C-19.13054961 43.65274803 -18.02504827 40.42692295 -16.26953125 36.40625 C-15.86017586 35.46428772 -15.86017586 35.46428772 -15.44255066 34.5032959 C-14.86397959 33.17437263 -14.28306278 31.84646847 -13.69995117 30.51953125 C-12.82829473 28.53594334 -11.96326742 26.54958148 -11.09960938 24.5625 C-7.50883072 16.32331336 -3.80148011 8.14442245 0 0 Z " fill="#FDFBF9" transform="translate(915,635)"/>
<path d="M0 0 C2.95289074 1.47644537 3.26762389 3.53879241 4.5390625 6.5546875 C5.2810791 8.30108521 5.2810791 8.30108521 6.03808594 10.08276367 C6.56724689 11.34676309 7.09621459 12.61084343 7.625 13.875 C8.16382728 15.15038353 8.70321745 16.4255294 9.24316406 17.70043945 C10.32433129 20.25627444 11.40165448 22.81367499 12.47558594 25.37255859 C13.83274289 28.60200094 15.1987866 31.82742217 16.5703125 35.05078125 C17.29716858 36.76289623 18.02375351 38.47512636 18.75 40.1875 C19.08467285 40.97560059 19.4193457 41.76370117 19.76416016 42.57568359 C22 47.88324746 22 47.88324746 22 49 C8.14 49 -5.72 49 -20 49 C-18.87493282 42.24959694 -18.87493282 42.24959694 -17.46533203 39.01757812 C-17.15475861 38.29662964 -16.84418518 37.57568115 -16.52420044 36.83288574 C-16.18879242 36.07334595 -15.8533844 35.31380615 -15.5078125 34.53125 C-15.16120575 33.73271606 -14.814599 32.93418213 -14.45748901 32.1114502 C-13.35293002 29.57151369 -12.23891993 27.03584282 -11.125 24.5 C-10.38353352 22.79582561 -9.64264226 21.09140083 -8.90234375 19.38671875 C-8.18802007 17.74716915 -7.47319294 16.10783878 -6.7578125 14.46875 C-6.26077316 13.32944031 -6.26077316 13.32944031 -5.75369263 12.16711426 C-3.94454794 8.05101543 -2.05016338 4.00379264 0 0 Z " fill="#F9FAFC" transform="translate(495,634)"/>
<path d="M0 0 C-0.33 2.31 -0.66 4.62 -1 7 C-1.64324219 6.97905273 -2.28648437 6.95810547 -2.94921875 6.93652344 C-20.86325988 6.43181258 -41.15139304 6.38003949 -55.51782227 18.96240234 C-58.57687119 23.16777581 -57.98762357 28.36853978 -57.9375 33.375 C-57.95361328 34.49261719 -57.96972656 35.61023438 -57.98632812 36.76171875 C-58.02155051 39.50906496 -58.02513788 42.25265279 -58 45 C-58.33 45 -58.66 45 -59 45 C-59 33.78 -59 22.56 -59 11 C-52.59386257 7.79693128 -47.0949144 5.13206726 -40.375 3.1875 C-39.29798828 2.86362305 -39.29798828 2.86362305 -38.19921875 2.53320312 C-36.4685637 2.01400661 -34.73463085 1.50575465 -33 1 C-36.98475984 -1.79908742 -39.97820759 -2.44334382 -44.8125 -2.6875 C-46.55466797 -2.78611328 -46.55466797 -2.78611328 -48.33203125 -2.88671875 C-49.21246094 -2.92410156 -50.09289062 -2.96148437 -51 -3 C-38.10480788 -11.59679475 -13.49996998 -5.06248874 0 0 Z " fill="#FBAE2E" transform="translate(935,302)"/>
<path d="M0 0 C0.16276553 2.56506424 0.28113984 5.11975422 0.375 7.6875 C0.45041016 8.7693457 0.45041016 8.7693457 0.52734375 9.87304688 C0.67340871 15.20441806 0.67340871 15.20441806 -1.29858398 17.53417969 C-2.81134833 18.75979152 -4.40434044 19.8844504 -6 21 C-8.68041675 25.25169554 -9.50240748 29.02407476 -10 34 C-10.99 33.34 -11.98 32.68 -13 32 C-13.90363281 32.9384375 -14.80726563 33.876875 -15.73828125 34.84375 C-16.92928782 36.06289058 -18.12071603 37.28161936 -19.3125 38.5 C-20.20485352 39.43005859 -20.20485352 39.43005859 -21.11523438 40.37890625 C-21.69208984 40.96542969 -22.26894531 41.55195313 -22.86328125 42.15625 C-23.39219971 42.70087891 -23.92111816 43.24550781 -24.46606445 43.80664062 C-26 45 -26 45 -29 45 C-29.33 39.06 -29.66 33.12 -30 27 C-28.68 26.34 -27.36 25.68 -26 25 C-24.33876258 23.3471105 -22.73999712 21.63042194 -21.1875 19.875 C-20.52838623 19.13793823 -20.52838623 19.13793823 -19.85595703 18.38598633 C-17.89560032 16.18676262 -15.96893327 13.96300979 -14.07421875 11.70703125 C-4.2240087 0 -4.2240087 0 0 0 Z " fill="#FA941D" transform="translate(862,332)"/>
<path d="M0 0 C0.33 0 0.66 0 1 0 C1.97018119 17.60152472 2.1365115 35.17148661 2.10139394 52.79441714 C2.09502744 56.54458851 2.09454632 60.2947612 2.09336853 64.04493713 C2.09029358 71.10612269 2.08213345 78.16729226 2.07201904 85.22847086 C2.06073679 93.28447146 2.05531733 101.34047292 2.05032361 109.39647949 C2.03994637 125.93099559 2.02242349 142.46549574 2 159 C1.67 159 1.34 159 1 159 C0.67 114.78 0.34 70.56 0 25 C-2.97 28.63 -5.94 32.26 -9 36 C-14.12340426 41.36356383 -14.12340426 41.36356383 -16 43 C-16.33 43 -16.66 43 -17 43 C-17.33 39.37 -17.66 35.74 -18 32 C-20.475 31.01 -20.475 31.01 -23 30 C-22.3090625 29.53207031 -21.618125 29.06414062 -20.90625 28.58203125 C-16.98260494 25.09610466 -14.38000752 21.0476042 -11.5 16.6875 C-10.38604376 15.0243194 -9.27146984 13.36155233 -8.15625 11.69921875 C-7.35960937 10.5088501 -7.35960937 10.5088501 -6.546875 9.29443359 C-4.42417747 6.1458996 -2.26876192 3.04556627 0 0 Z " fill="#FCE3C4" transform="translate(816,345)"/>
<path d="M0 0 C0 8.58 0 17.16 0 26 C-0.33 26 -0.66 26 -1 26 C-1.33 21.05 -1.66 16.1 -2 11 C-9.48905333 16.87748489 -15.82832095 22.7494372 -22 30 C-23.3310108 31.54367229 -24.66414959 33.08551386 -26 34.625 C-26.8353125 35.60339844 -26.8353125 35.60339844 -27.6875 36.6015625 C-28.120625 37.06304687 -28.55375 37.52453125 -29 38 C-29.33 38 -29.66 38 -30 38 C-30.33 80.24 -30.66 122.48 -31 166 C-4.6 166 21.8 166 49 166 C49 166.33 49 166.66 49 167 C22.27 167 -4.46 167 -32 167 C-32.20151517 132.59464312 -32.20151517 132.59464312 -32.24414062 118.18945312 C-32.27382189 108.23855727 -32.30873553 98.28787292 -32.37719727 88.3371582 C-32.42703156 81.09043396 -32.45929079 73.84388112 -32.47044247 66.59699029 C-32.47696131 62.75967357 -32.49228219 58.9228472 -32.52865028 55.08568764 C-32.56261077 51.47325516 -32.57305324 47.86151456 -32.56553841 44.24893761 C-32.56756797 42.29245552 -32.59446308 40.33604866 -32.62210083 38.37976074 C-32.57138291 29.76094769 -32.57138291 29.76094769 -29.61651611 25.82575989 C-28.7530658 25.22325912 -27.88961548 24.62075836 -27 24 C-25.3523793 22.34162783 -23.70525903 20.68275835 -22.05859375 19.0234375 C-20.66266869 17.62061655 -19.26673577 16.21780333 -17.87036133 14.81542969 C-16.91243923 13.85244785 -15.95541214 12.8885749 -14.99926758 11.92382812 C-13.60476562 10.51715857 -12.20672035 9.11400448 -10.80859375 7.7109375 C-9.98157959 6.87868652 -9.15456543 6.04643555 -8.30249023 5.18896484 C-2.84441222 0 -2.84441222 0 0 0 Z " fill="#F8A63F" transform="translate(863,322)"/>
<path d="M0 0 C3.18500291 1.62145603 5.22111096 2.97328264 7.375 5.8125 C8.73537221 10.57380273 8.56878187 13.92337717 6.25 18.3125 C3.5705235 21.51298582 1.71791137 22.73463158 -2.40234375 23.37109375 C-9.27030508 23.55099412 -9.27030508 23.55099412 -13.0625 20.6875 C-15.79449717 16.89795554 -16.39378918 13.73343356 -16.359375 9.0703125 C-15.71820971 5.3766429 -13.64068388 3.57781045 -11 1 C-7.52817697 -0.73591152 -3.79591036 -0.46571673 0 0 Z " fill="#929292" transform="translate(397,779)"/>
<path d="M0 0 C3.64207936 1.61870194 6.16648143 3.42946383 8 7 C8.55335968 11.9011857 8.5327637 14.00795724 6.1875 18.375 C3.89735405 21.12317514 2.31161645 22.80881523 -1.3046875 23.3359375 C-5.53302696 23.40019798 -8.2524915 23.42047353 -12 21.3125 C-14.86353273 18.00154028 -15.75683936 15.39817368 -16.5 11.125 C-15.78065501 6.6290938 -13.26027305 4.06600808 -10 1 C-6.80657621 -0.59671189 -3.47454369 -0.37418163 0 0 Z " fill="#9F9F9F" transform="translate(1067,779)"/>
<path d="M0 0 C3.2109084 1.49842392 5.77514817 3.23918947 8 6 C8.69054095 9.71741209 8.5995768 13.27172245 8 17 C5.39456832 20.42819958 3.14163456 22.66103626 -1.171875 23.34375 C-4.84044878 23.5660878 -7.78208796 23.74029947 -10.9921875 21.7890625 C-14.24855482 18.47037236 -15.41710829 15.50632472 -15.6875 10.875 C-15.45993222 7.04135814 -15.08292989 6.10693591 -12.625 2.9375 C-8.44533604 -0.14749006 -5.1279355 -0.56210062 0 0 Z " fill="#949394" transform="translate(628,779)"/>
<path d="M0 0 C13.125 -0.53571429 13.125 -0.53571429 16.75 1.875 C20.04202614 4.9841358 20.21934541 6.88831763 20.375 11.3125 C20.35279625 15.54786464 20.27605201 16.63677367 17.625 20.125 C11.99101493 24.14927505 6.84206517 23.06707907 0 23 C0 15.41 0 7.82 0 0 Z " fill="#979798" transform="translate(902,779)"/>
<path d="M0 0 C12.05357143 -0.53571429 12.05357143 -0.53571429 15.625 1.75 C19.32621562 5.2564148 19.88603363 6.80335316 20.375 11.9375 C20.28797946 15.05283528 19.96163812 16.06535728 18.3125 18.875 C12.52309372 24.19499496 8.06892392 23 0 23 C0 15.41 0 7.82 0 0 Z " fill="#959495" transform="translate(940,779)"/>
<path d="M0 0 C1.65 0 3.3 0 5 0 C6.32 3.96 7.64 7.92 9 12 C10.79068573 9.3139714 11.66055791 7.3373411 12.625 4.3125 C12.88539063 3.50425781 13.14578125 2.69601562 13.4140625 1.86328125 C13.60742188 1.24839844 13.80078125 0.63351562 14 0 C15.65 0 17.3 0 19 0 C19.67305018 1.60149886 20.33822227 3.20631029 21 4.8125 C21.37125 5.70582031 21.7425 6.59914063 22.125 7.51953125 C23 10 23 10 23 13 C23.66 13 24.32 13 25 13 C25.12117188 12.39671875 25.24234375 11.7934375 25.3671875 11.171875 C25.53476562 10.37265625 25.70234375 9.5734375 25.875 8.75 C26.03742188 7.96109375 26.19984375 7.1721875 26.3671875 6.359375 C26.99150075 4.03168856 27.84838542 2.10968048 29 0 C30.32 0 31.64 0 33 0 C32.48334032 5.85983633 31.24718923 10.60893883 28.9375 16 C28.65583984 16.67933594 28.37417969 17.35867188 28.08398438 18.05859375 C27.39808689 19.70939787 26.70030171 21.35525469 26 23 C24.68 23 23.36 23 22 23 C20.28232318 19.01811282 18.58962659 15.03520597 17 11 C14.91620491 14.84700632 13.50313376 18.90054429 12 23 C10.35 23 8.7 23 7 23 C5.82569926 19.7318568 4.66188744 16.46007485 3.5 13.1875 C3.16613281 12.25873047 2.83226562 11.32996094 2.48828125 10.37304688 C2.17246094 9.48037109 1.85664063 8.58769531 1.53125 7.66796875 C1.09135742 6.43469849 1.09135742 6.43469849 0.64257812 5.17651367 C0 3 0 3 0 0 Z " fill="#989798" transform="translate(458,779)"/>
<path d="M0 0 C0 15.84 0 31.68 0 48 C-26.73 48 -53.46 48 -81 48 C-81 47.34 -81 46.68 -81 46 C-54.93 46 -28.86 46 -2 46 C-2.33 32.47 -2.66 18.94 -3 5 C-8.02018774 9.14409345 -8.02018774 9.14409345 -8.56762695 12.40356445 C-8.54144287 13.215271 -8.51525879 14.02697754 -8.48828125 14.86328125 C-8.47216797 15.74951172 -8.45605469 16.63574219 -8.43945312 17.54882812 C-8.39755859 18.46083984 -8.35566406 19.37285156 -8.3125 20.3125 C-8.28994141 21.24384766 -8.26738281 22.17519531 -8.24414062 23.13476562 C-8.18542078 25.4248396 -8.10336858 27.71157875 -8 30 C-9.65 30.33 -11.3 30.66 -13 31 C-13 30.34 -13 29.68 -13 29 C-13.66 29 -14.32 29 -15 29 C-15 30.65 -15 32.3 -15 34 C-15.66 34 -16.32 34 -17 34 C-17.33 33.34 -17.66 32.68 -18 32 C-18.825 32.33 -19.65 32.66 -20.5 33 C-24.5873983 34.16782809 -27.76923344 34.1458885 -32 34 C-32 33.67 -32 33.34 -32 33 C-30.80503906 32.76216797 -30.80503906 32.76216797 -29.5859375 32.51953125 C-21.59657509 30.76031641 -16.88086481 29.27162713 -12.1875 22.3125 C-11.07094775 19.19790688 -10.92992074 17.4128455 -10.875 14.1875 C-10.49562149 8.23487057 -7.27549331 5.49878977 -3.03125 1.6171875 C-1 0 -1 0 0 0 Z " fill="#7B7087" transform="translate(702,441)"/>
<path d="M0 0 C14.33035714 -0.66964286 14.33035714 -0.66964286 17.4375 2.0625 C19.49355799 5.92788902 19.21149001 7.8355031 18 12 C16.4375 14.4375 16.4375 14.4375 15 16 C15.66 16.78375 16.32 17.5675 17 18.375 C19 21 19 21 19 23 C16.1875 23.3125 16.1875 23.3125 13 23 C11.11400657 20.61107499 10 19.08148442 10 16 C8.02 16 6.04 16 4 16 C4 18.31 4 20.62 4 23 C2.68 23 1.36 23 0 23 C0 15.41 0 7.82 0 0 Z " fill="#989898" transform="translate(524,779)"/>
<path d="M0 0 C3 0.25 3 0.25 5 2.25 C5.94925384 7.74322306 6.4299406 13.14255479 3.2109375 17.88671875 C1.22713174 19.8389799 -0.76267097 21.59697342 -3 23.25 C-3.99 22.92 -4.98 22.59 -6 22.25 C-8.22574335 22.02548542 -10.45581519 21.84217122 -12.6875 21.6875 C-13.86699219 21.60371094 -15.04648437 21.51992188 -16.26171875 21.43359375 C-17.61716797 21.34271484 -17.61716797 21.34271484 -19 21.25 C-18.62488281 20.82589844 -18.24976563 20.40179688 -17.86328125 19.96484375 C-13.57624827 15.05149361 -9.67033634 10.0338939 -6.3125 4.4375 C-4.41312326 1.2718721 -3.77520924 0.31460077 0 0 Z " fill="#FDF5E7" transform="translate(794,374.75)"/>
<path d="M0 0 C3.94875513 2.45865885 5.66872408 3.98776803 7.125 8.4375 C6.97177911 12.80429526 5.76736304 14.67916436 3 18 C-0.22878519 19.6143926 -3.50903682 19.5818272 -7 19 C-10.59385281 16.47665654 -11.76154966 14.72859825 -13.125 10.5625 C-12.95278418 5.65434903 -11.46551473 4.38492136 -8 1 C-5.09704195 -0.45147903 -3.22738221 -0.37239025 0 0 Z " fill="#FDF9F6" transform="translate(814,512)"/>
<path d="M0 0 C2.90567066 0.88784381 3.86322363 1.83492507 5.8125 4.1875 C7.39739585 7.94120071 7.06435104 10.09737951 6 14 C3.12580189 17.52321058 1.21983615 18.86190534 -3.3125 19.375 C-7 19 -7 19 -9.875 16.9375 C-12.41733802 13.42309156 -13 11.32499429 -13 7 C-10.17343915 0.64023808 -6.7213573 -0.4716742 0 0 Z " fill="#FDF8F6" transform="translate(727,512)"/>
<path d="M0 0 C1.65 0 3.3 0 5 0 C7.01975125 2.14653855 8.63759782 4.11295423 10.3125 6.5 C10.76689453 7.12003906 11.22128906 7.74007812 11.68945312 8.37890625 C12.80744812 9.90879414 13.90568532 11.45308527 15 13 C15.33 8.71 15.66 4.42 16 0 C17.32 0 18.64 0 20 0 C20 7.59 20 15.18 20 23 C14.37856253 21.87571251 13.20976258 20.33763271 10.1875 15.9375 C9.78080078 15.36966797 9.37410156 14.80183594 8.95507812 14.21679688 C7.95744838 12.82011523 6.97698467 11.41120009 6 10 C5.67 14.29 5.34 18.58 5 23 C3.35 23 1.7 23 0 23 C0 15.41 0 7.82 0 0 Z " fill="#989898" transform="translate(780,779)"/>
<path d="M0 0 C5.75358089 1.15071618 6.37313178 2.0964547 9.8125 6.5625 C10.60269531 7.57441406 11.39289062 8.58632813 12.20703125 9.62890625 C12.79871094 10.41136719 13.39039063 11.19382812 14 12 C14.33 8.04 14.66 4.08 15 0 C16.65 0 18.3 0 20 0 C20 7.59 20 15.18 20 23 C18.35 23 16.7 23 15 23 C13.12445157 21.04990672 11.69958571 19.32393995 10.1875 17.125 C9.78080078 16.56941406 9.37410156 16.01382813 8.95507812 15.44140625 C6 11.31919643 6 11.31919643 6 9 C5.34 9 4.68 9 4 9 C4 13.62 4 18.24 4 23 C2.68 23 1.36 23 0 23 C0 15.41 0 7.82 0 0 Z " fill="#959596" transform="translate(644,779)"/>
<path d="M0 0 C5.62143747 1.12428749 6.79023742 2.66236729 9.8125 7.0625 C10.21919922 7.63033203 10.62589844 8.19816406 11.04492188 8.78320312 C12.04255162 10.17988477 13.02301533 11.58879991 14 13 C14.33 8.71 14.66 4.42 15 0 C16.65 0 18.3 0 20 0 C20 7.59 20 15.18 20 23 C18.35 23 16.7 23 15 23 C13.12445157 21.04990672 11.69958571 19.32393995 10.1875 17.125 C9.78080078 16.56941406 9.37410156 16.01382813 8.95507812 15.44140625 C6 11.31919643 6 11.31919643 6 9 C5.34 9 4.68 9 4 9 C4 13.62 4 18.24 4 23 C2.68 23 1.36 23 0 23 C0 15.41 0 7.82 0 0 Z " fill="#969696" transform="translate(874,779)"/>
<path d="M0 0 C1.65 0 3.3 0 5 0 C8.3 7.59 11.6 15.18 15 23 C13.02 23 11.04 23 9 23 C8.505 20.525 8.505 20.525 8 18 C6.20739868 18.05995322 4.41574205 18.1487241 2.625 18.25 C1.62726563 18.29640625 0.62953125 18.3428125 -0.3984375 18.390625 C-3.1526477 18.72160885 -3.1526477 18.72160885 -4.3515625 21.046875 C-4.56554687 21.69140625 -4.77953125 22.3359375 -5 23 C-6.32 23 -7.64 23 -9 23 C-8.33673121 17.8307147 -6.08075343 13.37748635 -3.9375 8.6875 C-3.37192383 7.43356445 -3.37192383 7.43356445 -2.79492188 6.15429688 C-1.86788193 4.10072738 -0.93613122 2.04943713 0 0 Z " fill="#969697" transform="translate(503,779)"/>
<path d="M0 0 C1.65 0 3.3 0 5 0 C6.80078125 1.96875 6.80078125 1.96875 8.3125 4.5 C8.82425781 5.3353125 9.33601563 6.170625 9.86328125 7.03125 C10.23839844 7.6809375 10.61351562 8.330625 11 9 C13.31305983 6.84646154 14.97697609 5.0422105 16.5 2.25 C16.995 1.5075 17.49 0.765 18 0 C19.32 0 20.64 0 22 0 C22 7.59 22 15.18 22 23 C21.01 23 20.02 23 19 23 C19 18.05 19 13.1 19 8 C18.34 8 17.68 8 17 8 C16.731875 8.721875 16.46375 9.44375 16.1875 10.1875 C15.01017502 12.97590126 13.60854116 15.44095724 12 18 C9.25722422 14.80009492 7.3697164 11.99500618 6 8 C5.34 8 4.68 8 4 8 C4 12.95 4 17.9 4 23 C2.68 23 1.36 23 0 23 C0 15.41 0 7.82 0 0 Z " fill="#9A9A9A" transform="translate(1102,779)"/>
<path d="M0 0 C12.4 0 12.4 0 16 3 C17 4 17 4 17.375 6.75 C17 10 17 10 15 12.875 C10.96957293 15.72988584 8.84275759 15.41040319 4 15 C4 17.64 4 20.28 4 23 C2.68 23 1.36 23 0 23 C0 15.41 0 7.82 0 0 Z " fill="#9C9C9C" transform="translate(1081,779)"/>
<path d="M0 0 C5.94 0 11.88 0 18 0 C18 1.32 18 2.64 18 4 C13.71 4 9.42 4 5 4 C5 5.98 5 7.96 5 10 C8.63 10 12.26 10 16 10 C16 11.32 16 12.64 16 14 C12.37 14 8.74 14 5 14 C5 15.65 5 17.3 5 19 C9.29 19 13.58 19 18 19 C18 20.32 18 21.64 18 23 C12.06 23 6.12 23 0 23 C0 15.41 0 7.82 0 0 Z " fill="#989899" transform="translate(550,779)"/>
<path d="M0 0 C0.29261719 0.59683594 0.58523438 1.19367188 0.88671875 1.80859375 C3.42960507 6.81406472 5.74790595 10.67930728 11 13 C14.69523952 13.71923208 14.69523952 13.71923208 18 14 C18 14.33 18 14.66 18 15 C17.33613281 15.14695312 16.67226563 15.29390625 15.98828125 15.4453125 C9.66960636 17.05034817 6.45331205 18.38836792 3 24 C2.1113866 26.3414258 1.54081416 28.54175383 1 31 C0.71382812 30.4225 0.42765625 29.845 0.1328125 29.25 C-3.56446979 21.90643242 -6.19132726 18.17640925 -14 15 C-11 13 -11 13 -7.5625 11.4375 C-2.96051103 8.8927561 -1.64581453 4.78410682 0 0 Z " fill="#F5F9FB" transform="translate(634,328)"/>
<path d="M0 0 C5.78085505 1.15617101 7.11047684 3.06069263 10.3125 7.5625 C10.76689453 8.17802734 11.22128906 8.79355469 11.68945312 9.42773438 C12.80524319 10.94285983 13.90430371 12.47028033 15 14 C15.33 9.38 15.66 4.76 16 0 C17.32 0 18.64 0 20 0 C20 7.59 20 15.18 20 23 C18.68 23 17.36 23 16 23 C14.2345704 21.08621498 12.79263576 19.3016313 11.3125 17.1875 C10.90966797 16.64029297 10.50683594 16.09308594 10.09179688 15.52929688 C8.28842308 13.03719741 6.97841198 10.93523593 6 8 C5.34 8 4.68 8 4 8 C4 12.95 4 17.9 4 23 C2.68 23 1.36 23 0 23 C0 15.41 0 7.82 0 0 Z " fill="#999898" transform="translate(1152,779)"/>
<path d="M0 0 C0.66 0 1.32 0 2 0 C2.350625 1.051875 2.70125 2.10375 3.0625 3.1875 C4.94293934 7.63217481 7.98287535 9.56233572 12 12 C12.99 12.66 13.98 13.32 15 14 C13.948125 14.37125 12.89625 14.7425 11.8125 15.125 C7.69858849 16.91075469 5.4765135 19.21239112 3 23 C2.11994663 26.72697218 2.11994663 26.72697218 2 30 C0 29 0 29 -0.67578125 27.07421875 C-0.88589844 26.28660156 -1.09601562 25.49898438 -1.3125 24.6875 C-2.67503068 20.39552836 -3.99727845 18.32716369 -8 16 C-11.17921787 14.74443113 -11.17921787 14.74443113 -14 14 C-11.96116331 11.96116331 -10.73750036 11.42985864 -8.125 10.375 C-3.3367797 8.09406597 -1.78401387 4.83561654 0 0 Z " fill="#F1F9FB" transform="translate(745,248)"/>
<path d="M0 0 C2.34643555 0.22485352 2.34643555 0.22485352 5 1 C6.39379883 2.91772461 6.39379883 2.91772461 7.45703125 5.40234375 C8.04194336 6.73749023 8.04194336 6.73749023 8.63867188 8.09960938 C9.02603516 9.03611328 9.41339844 9.97261719 9.8125 10.9375 C10.42254883 12.33645508 10.42254883 12.33645508 11.04492188 13.76367188 C14 20.63236607 14 20.63236607 14 23 C12.35 22.67 10.7 22.34 9 22 C8.67 21.01 8.34 20.02 8 19 C4.37 19 0.74 19 -3 19 C-3.66 20.32 -4.32 21.64 -5 23 C-6.32 23 -7.64 23 -9 23 C-6.91147495 14.88406495 -3.64670147 7.52943541 0 0 Z " fill="#989898" transform="translate(855,779)"/>
<path d="M0 0 C2.3046875 1.03125 2.3046875 1.03125 4 2 C3.67 3.32 3.34 4.64 3 6 C2.484375 5.835 1.96875 5.67 1.4375 5.5 C-1.83960853 4.82777261 -4.66389912 4.6967181 -8 5 C-10.18547684 6.44148975 -10.18547684 6.44148975 -11 9 C-10.81541642 14.05107191 -10.81541642 14.05107191 -8 18 C-5.78927023 18.24253813 -5.78927023 18.24253813 -3.375 18.125 C-2.55773437 18.10695313 -1.74046875 18.08890625 -0.8984375 18.0703125 C0.04128906 18.03550781 0.04128906 18.03550781 1 18 C1 16.68 1 15.36 1 14 C-0.65 14 -2.3 14 -4 14 C-4 12.68 -4 11.36 -4 10 C-1.03 10 1.94 10 5 10 C5.28529317 13.37913907 5.4127 16.6278066 5 20 C2.27020024 22.99397393 -0.5465394 23.22395212 -4.4375 23.5 C-7.85360037 23.39164289 -9.82190053 22.82352632 -12.5 20.6875 C-16.10167521 16.81569915 -16.48629177 13.40209687 -16.39453125 8.296875 C-15.81841606 4.94285786 -14.53831073 3.22251232 -11.984375 1.02734375 C-8.17908089 -0.94271993 -4.14236073 -0.71090019 0 0 Z " fill="#949494" transform="translate(824,779)"/>
<path d="M0 0 C5.28 0 10.56 0 16 0 C16 1.32 16 2.64 16 4 C12.04 4 8.08 4 4 4 C4 5.98 4 7.96 4 10 C7.63 10 11.26 10 15 10 C15 11.32 15 12.64 15 14 C11.37 14 7.74 14 4 14 C4 15.65 4 17.3 4 19 C7.96 19 11.92 19 16 19 C16 20.32 16 21.64 16 23 C10.72 23 5.44 23 0 23 C0 15.41 0 7.82 0 0 Z " fill="#9D9D9D" transform="translate(1131,779)"/>
<path d="M0 0 C5.28 0 10.56 0 16 0 C16 1.32 16 2.64 16 4 C12.04 4 8.08 4 4 4 C4 5.98 4 7.96 4 10 C7.63 10 11.26 10 15 10 C15 11.32 15 12.64 15 14 C11.37 14 7.74 14 4 14 C4 15.65 4 17.3 4 19 C7.96 19 11.92 19 16 19 C16 20.32 16 21.64 16 23 C10.72 23 5.44 23 0 23 C0 15.41 0 7.82 0 0 Z " fill="#AAABAB" transform="translate(1011,779)"/>
<path d="M0 0 C0.76183594 0.00386719 1.52367187 0.00773438 2.30859375 0.01171875 C4.75779127 0.3385614 6.42950917 1.09295399 8.5625 2.3125 C7.9025 3.6325 7.2425 4.9525 6.5625 6.3125 C3.5925 5.9825 0.6225 5.6525 -2.4375 5.3125 C-2.4375 6.3025 -2.4375 7.2925 -2.4375 8.3125 C-1.82261719 8.49425781 -1.20773437 8.67601562 -0.57421875 8.86328125 C0.63814453 9.24033203 0.63814453 9.24033203 1.875 9.625 C3.07576172 9.99044922 3.07576172 9.99044922 4.30078125 10.36328125 C6.7002961 11.37033152 7.94778351 12.28899452 9.5625 14.3125 C10.12364721 17.4388916 9.81863705 18.86121092 8.25 21.625 C4.01347697 24.28514237 -0.56048356 23.95284109 -5.4375 23.3125 C-6.4275 22.6525 -7.4175 21.9925 -8.4375 21.3125 C-8.1075 19.9925 -7.7775 18.6725 -7.4375 17.3125 C-6.921875 17.4775 -6.40625 17.6425 -5.875 17.8125 C-2.70386124 18.46299 0.33468334 18.3745734 3.5625 18.3125 C3.5625 17.6525 3.5625 16.9925 3.5625 16.3125 C2.93601562 16.04695312 2.30953125 15.78140625 1.6640625 15.5078125 C0.84679687 15.15460937 0.02953125 14.80140625 -0.8125 14.4375 C-1.62460937 14.08945312 -2.43671875 13.74140625 -3.2734375 13.3828125 C-5.4375 12.3125 -5.4375 12.3125 -7.4375 10.3125 C-8.0033363 4.08830071 -8.0033363 4.08830071 -6.1953125 1.609375 C-3.97877529 -0.02593689 -2.73136331 -0.05987812 0 0 Z " fill="#959494" transform="translate(679.4375,778.6875)"/>
<path d="M0 0 C2.28125 1.0234375 2.28125 1.0234375 4 2 C3.67 2.99 3.34 3.98 3 5 C-0.3 5 -3.6 5 -7 5 C-7 5.99 -7 6.98 -7 8 C-6.28972656 8.27714844 -5.57945312 8.55429687 -4.84765625 8.83984375 C-3.92855469 9.20207031 -3.00945312 9.56429687 -2.0625 9.9375 C-1.14597656 10.29714844 -0.22945313 10.65679688 0.71484375 11.02734375 C3 12 3 12 4 13 C4.3125 16.375 4.3125 16.375 4 20 C1.87445268 22.13042243 0.51591753 22.92420169 -2.47265625 23.36328125 C-3.75462891 23.33814453 -3.75462891 23.33814453 -5.0625 23.3125 C-6.34833984 23.30669922 -6.34833984 23.30669922 -7.66015625 23.30078125 C-10 23 -10 23 -13 21 C-12.67 19.68 -12.34 18.36 -12 17 C-11.484375 17.165 -10.96875 17.33 -10.4375 17.5 C-7.26636124 18.15049 -4.22781666 18.0620734 -1 18 C-0.67 17.01 -0.34 16.02 0 15 C-1.5778125 14.8453125 -1.5778125 14.8453125 -3.1875 14.6875 C-6.99696709 14.00054692 -9.10797842 13.55178375 -12 11 C-13.0625 7.5625 -13.0625 7.5625 -13 4 C-10.13522998 -1.07845594 -5.24375315 -0.79394854 0 0 Z " fill="#929292" transform="translate(370,779)"/>
<path d="M0 0 C1.32 0 2.64 0 4 0 C4.04898438 1.13179687 4.09796875 2.26359375 4.1484375 3.4296875 C4.22346514 4.91148339 4.29901297 6.393253 4.375 7.875 C4.4059375 8.62136719 4.436875 9.36773438 4.46875 10.13671875 C4.55643831 14.53473188 4.55643831 14.53473188 7 18 C9.5 18.33333333 9.5 18.33333333 12 18 C14.93447357 15.06552643 14.46158423 11.81740544 14.625 7.875 C14.68300781 6.74384766 14.68300781 6.74384766 14.7421875 5.58984375 C14.83651031 3.72696816 14.91934662 1.86351745 15 0 C16.32 0 17.64 0 19 0 C19.13539281 2.89740622 19.23426829 5.78845621 19.3125 8.6875 C19.35439453 9.50412109 19.39628906 10.32074219 19.43945312 11.16210938 C19.52786575 15.52969312 19.42621356 17.42055783 16.76171875 21.04296875 C13.99906898 23.00065975 12.82167689 23.68348023 9.5 23.625 C8.7678125 23.63789062 8.035625 23.65078125 7.28125 23.6640625 C3.65673072 22.60897983 2.22729247 21.02802938 0 18 C-0.58998672 14.86701736 -0.47531181 11.8610779 -0.3125 8.6875 C-0.28994141 7.85154297 -0.26738281 7.01558594 -0.24414062 6.15429688 C-0.1855061 4.10208851 -0.09583215 2.05080798 0 0 Z " fill="#979797" transform="translate(696,779)"/>
<path d="M0 0 C3.0625 1.5 3.0625 1.5 5 3 C4.01 4.485 4.01 4.485 3 6 C2.31292969 5.89300781 1.62585938 5.78601563 0.91796875 5.67578125 C0.01691406 5.55589844 -0.88414062 5.43601562 -1.8125 5.3125 C-2.70582031 5.18488281 -3.59914063 5.05726563 -4.51953125 4.92578125 C-7.02757587 4.77363035 -7.02757587 4.77363035 -8.80078125 6.26171875 C-10.7820173 9.133543 -10.36082907 11.632262 -10 15 C-9.01951062 17.06402685 -9.01951062 17.06402685 -7 18 C-3.45705143 18.30152754 -0.39555034 18.04478472 3 17 C3.66 17.99 4.32 18.98 5 20 C1.15536569 23.33083525 -1.56250748 23.56148429 -6.51953125 23.4296875 C-10.54378559 22.73257257 -12.25081366 20.96066221 -15 18 C-16.74221711 14.51556578 -16.58675154 10.80112955 -16 7 C-12.18124238 0.10343774 -7.31885296 -0.75712272 0 0 Z " fill="#A0A0A1" transform="translate(602,779)"/>
<path d="M0 0 C2.4375 1.5 2.4375 1.5 4 4 C4.3102088 8.18403574 4.00982856 11.76576509 1.3125 15.0625 C-1.73353324 16.29737834 -3.74064668 16.47532236 -7 16 C-10.21983624 13.82443497 -10.91057891 12.30738498 -12 8.5625 C-12 5 -12 5 -10.1875 2.125 C-6.58640614 -1.37320546 -4.81204473 -1.25113163 0 0 Z " fill="#F9F9F9" transform="translate(1067,783)"/>
<path d="M0 0 C0.33 0 0.66 0 1 0 C1 5.28 1 10.56 1 16 C0.34 14.68 -0.32 13.36 -1 12 C-4.12907732 15.1000796 -7.25254725 18.20574924 -10.375 21.3125 C-11.26445313 22.19357422 -12.15390625 23.07464844 -13.0703125 23.98242188 C-13.92109375 24.82998047 -14.771875 25.67753906 -15.6484375 26.55078125 C-16.43395996 27.33106689 -17.21948242 28.11135254 -18.02880859 28.9152832 C-20.14761622 31.03877052 -20.14761622 31.03877052 -22 34 C-23.32 32.35 -24.64 30.7 -26 29 C-25.25556641 28.27296875 -25.25556641 28.27296875 -24.49609375 27.53125 C-20.44772095 23.53665065 -16.57373266 19.4652592 -12.8671875 15.15234375 C-9.94300975 11.78158655 -6.92497292 8.49605465 -3.91796875 5.19921875 C-1.87480508 2.95177481 -1.87480508 2.95177481 0 0 Z " fill="#F89D35" transform="translate(816,369)"/>
<path d="M0 0 C5.61 0 11.22 0 17 0 C17 1.32 17 2.64 17 4 C13.04 4 9.08 4 5 4 C5 5.98 5 7.96 5 10 C8.63 10 12.26 10 16 10 C16 11.32 16 12.64 16 14 C12.37 14 8.74 14 5 14 C5 16.97 5 19.94 5 23 C3.35 23 1.7 23 0 23 C0 15.41 0 7.82 0 0 Z " fill="#A1A0A1" transform="translate(412,779)"/>
<path d="M0 0 C5.28 0 10.56 0 16 0 C16 1.32 16 2.64 16 4 C11.71 4 7.42 4 3 4 C3 5.98 3 7.96 3 10 C6.63 10 10.26 10 14 10 C14 10.99 14 11.98 14 13 C10.37 13 6.74 13 3 13 C3.33 14.98 3.66 16.96 4 19 C7.96 19.33 11.92 19.66 16 20 C16 20.99 16 21.98 16 23 C10.72 23 5.44 23 0 23 C0 15.41 0 7.82 0 0 Z " fill="#999899" transform="translate(966,779)"/>
<path d="M0 0 C8 0 8 0 11.0625 1.4375 C13.25120767 4.3322424 13.29000742 5.07026112 13.0625 8.5625 C12.55629173 11.36045117 12.16924793 12.77659274 10.4375 15.0625 C8 16 8 16 0 16 C0 10.72 0 5.44 0 0 Z " fill="#F6F6F6" transform="translate(943,783)"/>
<path d="M0 0 C2.875 1.5625 2.875 1.5625 5 4 C5.63734462 7.96569988 5.61999672 10.03280512 3.4375 13.4375 C0.03280512 15.61999672 -2.03430012 15.63734462 -6 15 C-8.96135546 12.41830549 -9.86756104 10.81118865 -10.5 6.9375 C-10 4 -10 4 -8.375 1.625 C-5.26965639 -0.49970879 -3.6986604 -0.60386292 0 0 Z " fill="#F9F9F9" transform="translate(395,783)"/>
<path d="M0 0 C0.98548828 0.00273926 1.97097656 0.00547852 2.98632812 0.00830078 C13.37348886 0.15548042 22.91253769 1.90494528 32.75 5.3125 C32.75 5.9725 32.75 6.6325 32.75 7.3125 C28.56273706 7.42929952 24.37589699 7.49995327 20.1875 7.5625 C18.41536133 7.61277344 18.41536133 7.61277344 16.60742188 7.6640625 C9.50843694 7.74360295 5.64286648 7.18155375 -0.25 3.3125 C-3.74179062 2.63086879 -3.74179062 2.63086879 -7.1875 2.5625 C-8.33089844 2.50578125 -9.47429688 2.4490625 -10.65234375 2.390625 C-11.50957031 2.36484375 -12.36679687 2.3390625 -13.25 2.3125 C-8.92654226 -0.56980516 -5.08955112 -0.02804863 0 0 Z " fill="#FAC66C" transform="translate(897.25,296.6875)"/>
<path d="M0 0 C1.9375 1.1875 1.9375 1.1875 3 3 C3.56861912 6.73663996 3.24892554 8.54197701 1.4375 11.875 C-1 14 -1 14 -4.5 14.625 C-8 14 -8 14 -10.5 11.9375 C-12.46601181 8.08739354 -12.21718491 6.10799908 -11 2 C-7.79952331 -1.93904824 -4.62362797 -1.17692348 0 0 Z " fill="#F8F8F8" transform="translate(629,784)"/>
<path d="M0 0 C2.32421875 0.13671875 2.32421875 0.13671875 5 1 C6.58203125 3.58203125 6.58203125 3.58203125 7.8125 6.8125 C8.23144531 7.87082031 8.65039062 8.92914062 9.08203125 10.01953125 C10 13 10 13 10 17 C10.66 17 11.32 17 12 17 C12.0928125 15.576875 12.0928125 15.576875 12.1875 14.125 C12.89171763 8.92872751 15.52049381 4.54728625 18 0 C19.32 0 20.64 0 22 0 C20.67047378 5.4389709 18.59861162 10.28710088 16.21875 15.3515625 C15.05855412 17.8727574 14.00797441 20.4147323 13 23 C10.63989258 22.77514648 10.63989258 22.77514648 8 22 C6.69799805 20.08227539 6.69799805 20.08227539 5.76171875 17.59765625 C5.41689453 16.70755859 5.07207031 15.81746094 4.71679688 14.90039062 C4.20729492 13.49563477 4.20729492 13.49563477 3.6875 12.0625 C3.32849609 11.12986328 2.96949219 10.19722656 2.59960938 9.23632812 C0 2.38821429 0 2.38821429 0 0 Z " fill="#989898" transform="translate(985,779)"/>
<path d="M0 0 C6.27 0 12.54 0 19 0 C19 1.32 19 2.64 19 4 C16.69 4 14.38 4 12 4 C12 10.27 12 16.54 12 23 C10.35 23 8.7 23 7 23 C7 17.06 7 11.12 7 5 C4.69 5 2.38 5 0 5 C0 3.35 0 1.7 0 0 Z " fill="#959595" transform="translate(434,779)"/>
<path d="M0 0 C5.94 0 11.88 0 18 0 C18 1.32 18 2.64 18 4 C16.02 4 14.04 4 12 4 C12 10.27 12 16.54 12 23 C10.35 23 8.7 23 7 23 C7 17.06 7 11.12 7 5 C4.69 5 2.38 5 0 5 C0 3.35 0 1.7 0 0 Z " fill="#909091" transform="translate(742,779)"/>
<path d="M0 0 C1.65 0 3.3 0 5 0 C5 6.27 5 12.54 5 19 C8.96 19 12.92 19 17 19 C17 20.32 17 21.64 17 23 C11.39 23 5.78 23 0 23 C0 15.41 0 7.82 0 0 Z " fill="#A3A3A3" transform="translate(723,779)"/>
<path d="M0 0 C2.875 2.125 2.875 2.125 5 5 C5.07119063 8.55953149 4.7009249 10.22119455 2.3125 12.875 C-0.76660389 14.37294243 -2.61700591 14.56383235 -6 14 C-8.62136844 11.5855817 -9.79752546 9.92238403 -10.5625 6.4375 C-10 4 -10 4 -7.8125 1.6875 C-4.71530485 -0.17081709 -3.51358407 -0.79055641 0 0 Z " fill="#EA6831" transform="translate(872,455)"/>
<path d="M0 0 C2.5 1.5625 2.5 1.5625 4 4 C4 7.82389746 3.85254277 10.05611336 1.25 12.9375 C-1.49491218 14.23370853 -3.00074212 14.52487013 -6 14 C-8.3125 12.4375 -8.3125 12.4375 -10 10 C-10.42519574 6.53769185 -10.63902633 4.1652833 -8.9375 1.0625 C-5.8347167 -0.63902633 -3.46230815 -0.42519574 0 0 Z " fill="#715C61" transform="translate(677,449)"/>
<path d="M0 0 C7 0 7 0 9.9375 1.5625 C12 4 12 4 12.5625 7.5 C12 11 12 11 10.5 13.4375 C6.86353539 15.71029038 4.24217465 15.28281164 0 15 C0 10.05 0 5.1 0 0 Z " fill="#F6F6F6" transform="translate(906,783)"/>
<path d="M0 0 C4.91511194 1.34048507 4.91511194 1.34048507 6.4375 3.9375 C6.97818562 7.56781776 6.90129841 9.25964079 4.8125 12.3125 C1.72563568 14.42456506 0.1092087 14.54945145 -3.5625 13.9375 C-5.9375 12.3125 -5.9375 12.3125 -7.5625 9.9375 C-8.17225382 6.27897708 -8.00793026 4.63237121 -6 1.5 C-3.5625 -0.0625 -3.5625 -0.0625 0 0 Z " fill="#FA9E2B" transform="translate(870.5625,357.0625)"/>
<path d="M0 0 C5.94 0 11.88 0 18 0 C18 1.32 18 2.64 18 4 C15.69 4 13.38 4 11 4 C11 10.27 11 16.54 11 23 C9.68 23 8.36 23 7 23 C7 16.73 7 10.46 7 4 C4.69 4 2.38 4 0 4 C0 2.68 0 1.36 0 0 Z " fill="#949494" transform="translate(1177,779)"/>
<path d="M0 0 C1.9375 1.125 1.9375 1.125 3 3 C3.54068562 6.63031776 3.46379841 8.32214079 1.375 11.375 C-1.67785921 13.46379841 -3.36968224 13.54068562 -7 13 C-8.875 11.9375 -8.875 11.9375 -10 10 C-10.36528977 6.5906288 -10.6140629 4.11976176 -8.9375 1.0625 C-5.88023824 -0.6140629 -3.4093712 -0.36528977 0 0 Z " fill="#F18027" transform="translate(783,407)"/>
<path d="M0 0 C10.7421875 -0.1953125 10.7421875 -0.1953125 14 0 C14.66 0.66 15.32 1.32 16 2 C15.01 2 14.02 2 13 2 C13 2.66 13 3.32 13 4 C10.03 4 7.06 4 4 4 C4 6.64 4 9.28 4 12 C5.98 12 7.96 12 10 12 C10 12.33 10 12.66 10 13 C8.02 13 6.04 13 4 13 C4 16.3 4 19.6 4 23 C2.68 23 1.36 23 0 23 C0 15.41 0 7.82 0 0 Z " fill="#939292" transform="translate(524,779)"/>
<path d="M0 0 C2.32528287 2.32528287 2.29511025 2.84665898 2.3125 6 C2.32925781 6.70125 2.34601562 7.4025 2.36328125 8.125 C2.18345703 9.053125 2.18345703 9.053125 2 10 C-1 12 -1 12 -4.5625 11.9375 C-6.2640625 11.9684375 -6.2640625 11.9684375 -8 12 C-8.66 12.99 -9.32 13.98 -10 15 C-10.61919654 5.02405581 -10.61919654 5.02405581 -8.375 1.3125 C-5.34766313 -0.36050196 -3.40925781 -0.4446858 0 0 Z " fill="#FEFCFA" transform="translate(797,375)"/>
<path d="M0 0 C1.32 0 2.64 0 4 0 C4 6.6 4 13.2 4 20 C7.63 20 11.26 20 15 20 C15 20.99 15 21.98 15 23 C10.05 23 5.1 23 0 23 C0 15.41 0 7.82 0 0 Z " fill="#989898" transform="translate(1033,779)"/>
<path d="M0 0 C5 1 5 1 6.80078125 3.06640625 C7.29964844 3.89011719 7.79851562 4.71382812 8.3125 5.5625 C8.82425781 6.38878906 9.33601563 7.21507812 9.86328125 8.06640625 C10.23839844 8.70449219 10.61351562 9.34257813 11 10 C9.68 10.33 8.36 10.66 7 11 C6.67 10.01 6.34 9.02 6 8 C5.34 8 4.68 8 4 8 C4 12.95 4 17.9 4 23 C2.68 23 1.36 23 0 23 C0 15.41 0 7.82 0 0 Z " fill="#9C9C9C" transform="translate(1152,779)"/>
<path d="M0 0 C1.11310547 0.00451172 2.22621094 0.00902344 3.37304688 0.01367188 C6.10292101 0.02538807 8.83268174 0.04179301 11.5625 0.0625 C11.5625 0.7225 11.5625 1.3825 11.5625 2.0625 C10.83772461 2.08231934 10.11294922 2.10213867 9.36621094 2.12255859 C6.01466966 2.21906336 2.66364824 2.32822343 -0.6875 2.4375 C-1.82703125 2.4684375 -2.9665625 2.499375 -4.140625 2.53125 C-11.72101428 2.78967236 -18.99447498 3.61010132 -26.4375 5.0625 C-27.2941626 5.22024902 -28.1508252 5.37799805 -29.03344727 5.54052734 C-31.24421091 6.02053269 -33.24382876 6.63563186 -35.35546875 7.4375 C-36.05220703 7.70046875 -36.74894531 7.9634375 -37.46679688 8.234375 C-38.17900391 8.50765625 -38.89121094 8.7809375 -39.625 9.0625 C-40.71071289 9.47242188 -40.71071289 9.47242188 -41.81835938 9.890625 C-45.68291938 11.34843275 -45.68291938 11.34843275 -49.4375 13.0625 C-50.0975 12.4025 -50.7575 11.7425 -51.4375 11.0625 C-34.49702986 4.30433372 -18.39593112 -0.14192707 0 0 Z " fill="#FBC043" transform="translate(904.4375,282.9375)"/>
<path d="M0 0 C4.875 1.875 4.875 1.875 6 3 C6.3125 6.375 6.3125 6.375 6 10 C3.87445268 12.13042243 2.51591753 12.92420169 -0.47265625 13.36328125 C-1.75462891 13.33814453 -1.75462891 13.33814453 -3.0625 13.3125 C-4.34833984 13.30669922 -4.34833984 13.30669922 -5.66015625 13.30078125 C-8 13 -8 13 -11 11 C-10.67 9.68 -10.34 8.36 -10 7 C-9.484375 7.165 -8.96875 7.33 -8.4375 7.5 C-5.26636124 8.15049 -2.22781666 8.0620734 1 8 C1.33 7.01 1.66 6.02 2 5 C-0.31 4.67 -2.62 4.34 -5 4 C-1.25 2.875 -1.25 2.875 1 4 C0.67 2.68 0.34 1.36 0 0 Z " fill="#989898" transform="translate(368,789)"/>
<path d="M0 0 C2.54532213 1.33964322 4.57078153 2.42770871 6.3125 4.75 C7.31516165 8.03143813 7.35356638 10.58219169 7 14 C5 17.4375 5 17.4375 3 20 C0.525 19.01 0.525 19.01 -2 18 C-1.505 17.484375 -1.01 16.96875 -0.5 16.4375 C1.56851618 13.0761612 1.48505011 10.88040089 1 7 C-0.85420839 4.55901182 -0.85420839 4.55901182 -3 3 C-2.34 3 -1.68 3 -1 3 C-0.67 2.01 -0.34 1.02 0 0 Z " fill="#9B9B9B" transform="translate(398,780)"/>
<path d="M0 0 C1.05115215 4.99297271 1.05115215 4.99297271 0 8 C-4.29812512 11.49999534 -9.33683026 15 -15 15 C-15.296875 12.7265625 -15.296875 12.7265625 -15 10 C-12.953125 8.0859375 -12.953125 8.0859375 -10.25 6.375 C-9.36828125 5.80523437 -8.4865625 5.23546875 -7.578125 4.6484375 C-6.72734375 4.10445313 -5.8765625 3.56046875 -5 3 C-4.25234375 2.43539063 -3.5046875 1.87078125 -2.734375 1.2890625 C-1 0 -1 0 0 0 Z " fill="#F3A35D" transform="translate(762,409)"/>
<path d="M0 0 C3.58552881 1.63687185 4.79315055 2.68972583 7 6 C7.25760279 8.69452521 7.08900053 11.28548375 7 14 C6.01 14.33 5.02 14.66 4 15 C3.85304688 14.06027344 3.85304688 14.06027344 3.703125 13.1015625 C3.55359375 12.28429687 3.4040625 11.46703125 3.25 10.625 C3.11078125 9.81289063 2.9715625 9.00078125 2.828125 8.1640625 C2.18101173 5.87464433 2.18101173 5.87464433 0.171875 4.69921875 C-3.35876578 3.56255562 -6.45263019 4.08408075 -10 5 C-12.43888182 6.40605073 -12.43888182 6.40605073 -14 8 C-13.6858889 5.06829636 -12.9610478 3.95750669 -10.9375 1.75 C-7.13753001 -0.51381191 -4.32174657 -0.73487189 0 0 Z " fill="#989798" transform="translate(1067,779)"/>
<path d="M0 0 C5.28 0 10.56 0 16 0 C16 1.32 16 2.64 16 4 C12.04 4 8.08 4 4 4 C4 5.98 4 7.96 4 10 C3.34 10 2.68 10 2 10 C1.67 14.29 1.34 18.58 1 23 C0.67 23 0.34 23 0 23 C0 15.41 0 7.82 0 0 Z " fill="#A1A2A2" transform="translate(1011,779)"/>
<path d="M0 0 C-0.66 2.97 -1.32 5.94 -2 9 C0.31 9 2.62 9 5 9 C4.01 10.485 4.01 10.485 3 12 C1.845 12.144375 0.69 12.28875 -0.5 12.4375 C-2.2325 12.7159375 -2.2325 12.7159375 -4 13 C-5.51294288 14.93597032 -5.51294288 14.93597032 -6 17 C-7.32 17 -8.64 17 -10 17 C-6.92230005 5.95520443 -6.92230005 5.95520443 -4 1 C-2 0 -2 0 0 0 Z " fill="#8E8E8E" transform="translate(856,785)"/>
<path d="M0 0 C1.32 0 2.64 0 4 0 C4 7.59 4 15.18 4 23 C2.68 23 1.36 23 0 23 C0 15.41 0 7.82 0 0 Z " fill="#929191" transform="translate(768,779)"/>
<path d="M0 0 C2.97 0 5.94 0 9 0 C9.2852807 3.37899141 9.42878224 6.62944593 9 10 C6.22141617 12.77858383 4.58061005 12.96713528 0.6875 13.1875 C-0.6428125 13.0946875 -0.6428125 13.0946875 -2 13 C-2 12.01 -2 11.02 -2 10 C0.31 9.34 2.62 8.68 5 8 C5 6.68 5 5.36 5 4 C3.35 4 1.7 4 0 4 C0 2.68 0 1.36 0 0 Z " fill="#8C8C8D" transform="translate(820,789)"/>
<path d="M0 0 C2.66044076 2.66044076 3.012761 4.11484902 3.4375 7.9375 C3.30629631 10.99511649 2.91785918 12.14848532 1.375 14.9375 C-1.56119812 17.48735626 -3.13342692 17.84836968 -7 18 C-9.34214207 17.7355646 -11.68025766 17.41755362 -14 17 C-14 16.67 -14 16.34 -14 16 C-11.02148438 15.70703125 -11.02148438 15.70703125 -8.04296875 15.4140625 C-5.70011858 15.07334609 -5.70011858 15.07334609 -3 13 C-2.34397479 10.91297873 -2.34397479 10.91297873 -2.1875 8.5625 C-2.09855469 7.78003906 -2.00960937 6.99757813 -1.91796875 6.19140625 C-1.81974131 3.70360157 -1.81974131 3.70360157 -4 1 C-2.68 0.67 -1.36 0.34 0 0 Z " fill="#929293" transform="translate(957,783)"/>
<path d="M0 0 C0.33 1.32 0.66 2.64 1 4 C3.31 4 5.62 4 8 4 C8.33 5.65 8.66 7.3 9 9 C9.33 9 9.66 9 10 9 C10.33 7.35 10.66 5.7 11 4 C11.33 4 11.66 4 12 4 C12 10.27 12 16.54 12 23 C10.35 23 8.7 23 7 23 C7 17.06 7 11.12 7 5 C4.69 5 2.38 5 0 5 C0 3.35 0 1.7 0 0 Z " fill="#ABABAB" transform="translate(742,779)"/>
<path d="M0 0 C3.52076232 -0.05855176 7.0413976 -0.0937806 10.5625 -0.125 C12.0484668 -0.15013672 12.0484668 -0.15013672 13.56445312 -0.17578125 C19.15413961 -0.21292202 23.72232958 0.1500949 29 2 C29.73089844 2.20882813 30.46179688 2.41765625 31.21484375 2.6328125 C32.80989583 3.08854167 34.40494792 3.54427083 36 4 C36 4.33 36 4.66 36 5 C20.36776312 6.72648955 20.36776312 6.72648955 13 2 C8.67553254 1.35440415 4.36779369 1.13136222 0 1 C0 0.67 0 0.34 0 0 Z " fill="#F9CF87" transform="translate(884,298)"/>
<path d="M0 0 C7.59 0 15.18 0 23 0 C23 16.83 23 33.66 23 51 C22.67 51 22.34 51 22 51 C21.67 34.83 21.34 18.66 21 2 C4.08699678 0.58382361 4.08699678 0.58382361 -2 4 C-1.34 2.68 -0.68 1.36 0 0 Z " fill="#3496BF" transform="translate(689,607)"/>
<path d="M0 0 C0.66 0 1.32 0 2 0 C4.08641975 25.0691358 4.08641975 25.0691358 -0.671875 31.46484375 C-3.47265994 34.44795827 -6.55766294 36.80243661 -10 39 C-10 35.00102358 -8.64683965 33.93298448 -6 31 C-5.1440625 30.53980469 -4.288125 30.07960938 -3.40625 29.60546875 C0.53764324 25.33505188 -0.21675705 20.35435138 -0.1875 14.75 C-0.16236328 13.62335938 -0.13722656 12.49671875 -0.11132812 11.3359375 C-0.05245108 8.55694092 -0.01617475 5.77951967 0 3 C-0.66 2.67 -1.32 2.34 -2 2 C-1.34 1.34 -0.68 0.68 0 0 Z " fill="#B48153" transform="translate(700,395)"/>
<path d="M0 0 C1.32 0 2.64 0 4 0 C4 7.59 4 15.18 4 23 C3.01 23 2.02 23 1 23 C1 18.05 1 13.1 1 8 C0.34 8 -0.32 8 -1 8 C-0.67 5.36 -0.34 2.72 0 0 Z " fill="#898887" transform="translate(1120,779)"/>
<path d="M0 0 C1.65 0.33 3.3 0.66 5 1 C5.66 2.98 6.32 4.96 7 7 C6.01 7 5.02 7 4 7 C4.33 9.31 4.66 11.62 5 14 C3.02 14 1.04 14 -1 14 C-0.47731534 11.23723823 0.10869587 8.6739124 1 6 C0.01 6.33 -0.98 6.66 -2 7 C-1.125 2.25 -1.125 2.25 0 0 Z " fill="#9C9B9C" transform="translate(855,779)"/>
<path d="M0 0 C13.57941634 -0.57288163 26.22802596 1.21050974 39 6 C38.34 7.32 37.68 8.64 37 10 C32.05 9.67 27.1 9.34 22 9 C22 8.67 22 8.34 22 8 C25.96 8 29.92 8 34 8 C34 7.34 34 6.68 34 6 C30.66909435 5.32081316 27.33496801 4.65892513 24 4 C23.1234375 3.82082031 22.246875 3.64164062 21.34375 3.45703125 C14.25532235 2.07061819 7.20568903 1.43531985 0 1 C0 0.67 0 0.34 0 0 Z " fill="#F9B338" transform="translate(896,296)"/>
<path d="M0 0 C0.598125 0.763125 1.19625 1.52625 1.8125 2.3125 C3.46959332 4.3483575 5.10297674 6.1978279 7 8 C6.21625 8.61875 5.4325 9.2375 4.625 9.875 C2.03162353 11.89858661 2.03162353 11.89858661 0 14 C-0.61875 13.195625 -1.2375 12.39125 -1.875 11.5625 C-3.74164041 8.96125481 -3.74164041 8.96125481 -6 8 C-6 7.34 -6 6.68 -6 6 C-4.34997172 4.64613064 -2.6825613 3.31321858 -1 2 C-0.67 1.34 -0.34 0.68 0 0 Z " fill="#E8F6F9" transform="translate(795,282)"/>
<path d="M0 0 C6.0546875 -0.1953125 6.0546875 -0.1953125 8 0 C8.66 0.66 9.32 1.32 10 2 C9.44444444 6.55555556 9.44444444 6.55555556 8 8 C5.32941149 8.14115161 2.67567762 8.04247107 0 8 C0 5.36 0 2.72 0 0 Z " fill="#F0F0F0" transform="translate(528,783)"/>
<path d="M0 0 C3.0625 1.5 3.0625 1.5 5 3 C4.01 4.485 4.01 4.485 3 6 C2.31292969 5.91621094 1.62585938 5.83242188 0.91796875 5.74609375 C0.01691406 5.64425781 -0.88414062 5.54242187 -1.8125 5.4375 C-2.70582031 5.33308594 -3.59914063 5.22867188 -4.51953125 5.12109375 C-7.13375572 4.84341291 -7.13375572 4.84341291 -10 6 C-10.99 5.67 -11.98 5.34 -13 5 C-10.27533894 -1.03317806 -6.13141843 -0.63428467 0 0 Z " fill="#919192" transform="translate(602,779)"/>
<path d="M0 0 C0.33 0 0.66 0 1 0 C1 3.96 1 7.92 1 12 C-2.63 12 -6.26 12 -10 12 C-9.0925 10.948125 -8.185 9.89625 -7.25 8.8125 C-5.34272159 6.59410526 -3.49820553 4.36258541 -1.6875 2.0625 C-1.130625 1.381875 -0.57375 0.70125 0 0 Z " fill="#FCDCB5" transform="translate(785,384)"/>
<path d="M0 0 C0.99 0.33 1.98 0.66 3 1 C3 3.31 3 5.62 3 8 C2.01 8 1.02 8 0 8 C0 7.34 0 6.68 0 6 C-0.66 6 -1.32 6 -2 6 C-2 7.65 -2 9.3 -2 11 C-2.66 11 -3.32 11 -4 11 C-4.33 10.34 -4.66 9.68 -5 9 C-5.825 9.33 -6.65 9.66 -7.5 10 C-11.5873983 11.16782809 -14.76923344 11.1458885 -19 11 C-19 10.67 -19 10.34 -19 10 C-18.20335937 9.84144531 -17.40671875 9.68289063 -16.5859375 9.51953125 C-10.07713103 8.08632691 -5.62922185 6.87945006 -1 2 C-0.67 1.34 -0.34 0.68 0 0 Z " fill="#694F61" transform="translate(689,464)"/>
<path d="M0 0 C0.61875 0.804375 1.2375 1.60875 1.875 2.4375 C3.74164041 5.03874519 3.74164041 5.03874519 6 6 C4.98305687 9.05082939 4.27855788 9.90372675 2 12 C1.34 12.66 0.68 13.32 0 14 C-0.2475 13.38125 -0.495 12.7625 -0.75 12.125 C-2.20628639 9.64931313 -3.37812506 9.04874998 -6 8 C-6 7.34 -6 6.68 -6 6 C-5.38125 5.7525 -4.7625 5.505 -4.125 5.25 C-1.64931313 3.79371361 -1.04874998 2.62187494 0 0 Z " fill="#EEF5F9" transform="translate(600,371)"/>
<path d="M0 0 C3.375 -0.125 3.375 -0.125 7 0 C7.66 0.66 8.32 1.32 9 2 C8.75 4.5625 8.75 4.5625 8 7 C5.29120665 8.35439668 2.99066732 8.06501451 0 8 C0 5.36 0 2.72 0 0 Z " fill="#F8F8F8" transform="translate(1085,783)"/>
<path d="M0 0 C0.33 0 0.66 0 1 0 C1 6.27 1 12.54 1 19 C5.62 19 10.24 19 15 19 C15 19.99 15 20.98 15 22 C10.05 22 5.1 22 0 22 C0 14.74 0 7.48 0 0 Z " fill="#8E8D8E" transform="translate(1012,780)"/>
<path d="M0 0 C0.33 0 0.66 0 1 0 C1 1.98 1 3.96 1 6 C4.63 6 8.26 6 12 6 C12 7.32 12 8.64 12 10 C8.37 10 4.74 10 1 10 C1 11.65 1 13.3 1 15 C0.67 15 0.34 15 0 15 C-1.33257403 4.44191344 -1.33257403 4.44191344 0 0 Z " fill="#AEAEAE" transform="translate(1134,783)"/>
<path d="M0 0 C0 0.66 0 1.32 0 2 C-2.31 3.32 -4.62 4.64 -7 6 C-7 7.04800781 -7 8.09601563 -7 9.17578125 C-7 24 -7 24 -8 26 C-8.66 26 -9.32 26 -10 26 C-10.23315639 22.60533263 -10.37464625 19.21272038 -10.5 15.8125 C-10.56703125 14.85279297 -10.6340625 13.89308594 -10.703125 12.90429688 C-10.78176714 10.06334964 -10.75183749 7.74454447 -10 5 C-7.26861972 2.1975855 -4.00441048 0 0 0 Z " fill="#FABA3D" transform="translate(841,301)"/>
<path d="M0 0 C0.66 0 1.32 0 2 0 C1.08511472 4.00262312 -0.52875206 5.61661144 -3.875 7.75 C-6.55671499 9.36106832 -8.93381104 10.36751259 -12 11 C-12.33 9.68 -12.66 8.36 -13 7 C-12.14535156 6.57847656 -11.29070313 6.15695312 -10.41015625 5.72265625 C-9.30542969 5.17480469 -8.20070313 4.62695312 -7.0625 4.0625 C-5.96035156 3.51722656 -4.85820313 2.97195313 -3.72265625 2.41015625 C-1.15205586 1.25295022 -1.15205586 1.25295022 0 0 Z " fill="#EC822B" transform="translate(760,417)"/>
<path d="M0 0 C1.09570312 0.00902344 2.19140625 0.01804687 3.3203125 0.02734375 C4.16335938 0.03894531 5.00640625 0.05054688 5.875 0.0625 C5.875 1.3825 5.875 2.7025 5.875 4.0625 C1.255 4.0625 -3.365 4.0625 -8.125 4.0625 C-8.125 3.0725 -8.125 2.0825 -8.125 1.0625 C-5.36047967 -0.31976016 -3.0788637 -0.03275387 0 0 Z " fill="#8F8E8E" transform="translate(423.125,778.9375)"/>
<path d="M0 0 C-1.375 2 -1.375 2 -4 4 C-7.3580469 4.35791096 -10.63536357 4.23115823 -14 4 C-13.67 2.68 -13.34 1.36 -13 0 C-11.58800422 -0.39222105 -10.17007236 -0.76311059 -8.75 -1.125 C-7.96109375 -1.33382812 -7.1721875 -1.54265625 -6.359375 -1.7578125 C-3.5796929 -2.04314411 -2.34112451 -1.44977894 0 0 Z " fill="#979797" transform="translate(607,798)"/>
<path d="M0 0 C4.875 4.75 4.875 4.75 6 7 C18.87 7.495 18.87 7.495 32 8 C31.67 6.68 31.34 5.36 31 4 C33 5.375 33 5.375 35 7 C35 7.66 35 8.32 35 9 C30.81929297 9.17363959 26.64051705 9.30032743 22.45727539 9.38452148 C21.03600496 9.41962856 19.61498568 9.4673303 18.19458008 9.52807617 C6.39184303 10.02002913 6.39184303 10.02002913 2.92724609 7.48095703 C1.18471779 5.11025803 0 2.99634862 0 0 Z " fill="#E45D2E" transform="translate(1073,722)"/>
<path d="M0 0 C4.62 0 9.24 0 14 0 C14 0.66 14 1.32 14 2 C10.37 2.33 6.74 2.66 3 3 C2.34 7.95 1.68 12.9 1 18 C0.67 18 0.34 18 0 18 C0 12.06 0 6.12 0 0 Z " fill="#8D8C8C" transform="translate(1132,780)"/>
<path d="M0 0 C5.61 0 11.22 0 17 0 C12.97605858 2.01197071 12.16745976 2.1311701 8 1.75 C5.38655369 1.63517648 5.38655369 1.63517648 3 2 C0.37267224 4.48187653 0.37267224 4.48187653 -1 8 C-1.29519531 8.64582031 -1.59039063 9.29164063 -1.89453125 9.95703125 C-2.63655916 11.62066461 -3.32346916 13.30867289 -4 15 C-4.66 15 -5.32 15 -6 15 C-4.39749629 9.79186293 -2.25140683 4.95309502 0 0 Z " fill="#F9A233" transform="translate(902,607)"/>
<path d="M0 0 C0.33 0 0.66 0 1 0 C1.26554688 1.15757812 1.53109375 2.31515625 1.8046875 3.5078125 C2.16130764 5.04690993 2.51808691 6.58597048 2.875 8.125 C3.04902344 8.88554687 3.22304688 9.64609375 3.40234375 10.4296875 C4.39798428 14.70725424 5.52971389 18.85405809 7 23 C2.53867259 19.36484434 -0.29639144 14.44362362 -2 9 C-1.84352269 5.78036074 -1.14005284 3.00625399 0 0 Z " fill="#218BC5" transform="translate(537,400)"/>
<path d="M0 0 C0.99 0 1.98 0 3 0 C3.08074203 2.62561109 3.1403623 5.24875676 3.1875 7.875 C3.22520508 8.99455078 3.22520508 8.99455078 3.26367188 10.13671875 C3.29296875 12.3046875 3.29296875 12.3046875 3 16 C2.01 16.66 1.02 17.32 0 18 C0 12.06 0 6.12 0 0 Z " fill="#919191" transform="translate(724,779)"/>
<path d="M0 0 C0 0.99 0 1.98 0 3 C-0.67546875 3.10957031 -1.3509375 3.21914063 -2.046875 3.33203125 C-2.93890625 3.49058594 -3.8309375 3.64914062 -4.75 3.8125 C-5.63171875 3.96332031 -6.5134375 4.11414063 -7.421875 4.26953125 C-10.1910911 5.05414248 -11.8259401 6.14595359 -14 8 C-13.6858889 5.06829636 -12.9610478 3.95750669 -10.9375 1.75 C-6.97597894 -0.6100551 -4.55355001 -0.30871526 0 0 Z " fill="#8B8A8B" transform="translate(1067,779)"/>
<path d="M0 0 C0.33 0 0.66 0 1 0 C3.30844801 6.34823202 3.19818283 12.29481414 3 19 C2.01 19 1.02 19 0 19 C0 12.73 0 6.46 0 0 Z " fill="#919091" transform="translate(781,783)"/>
<path d="M0 0 C0.66 0 1.32 0 2 0 C0.6415798 3.04332765 -0.88463024 5.12309151 -3.2578125 7.453125 C-3.88300781 8.071875 -4.50820313 8.690625 -5.15234375 9.328125 C-5.80332031 9.96234375 -6.45429687 10.5965625 -7.125 11.25 C-7.78371094 11.8996875 -8.44242188 12.549375 -9.12109375 13.21875 C-10.74296643 14.81711727 -12.3693281 16.41061897 -14 18 C-14 13.53841422 -11.05883059 11.48881808 -8.125 8.4375 C-7.29162109 7.55288086 -7.29162109 7.55288086 -6.44140625 6.65039062 C-4.32110848 4.40491865 -2.18384064 2.18384064 0 0 Z " fill="#31C8E5" transform="translate(560,302)"/>
<path d="M0 0 C2.91180862 4.36771293 3.12438648 7.55153591 3.0625 12.75 C3.05347656 13.73484375 3.04445313 14.7196875 3.03515625 15.734375 C3.02355469 16.48203125 3.01195312 17.2296875 3 18 C2.01 18 1.02 18 0 18 C0 12.06 0 6.12 0 0 Z " fill="#7F7F7F" transform="translate(1153,784)"/>
<path d="M0 0 C1.32 0 2.64 0 4 0 C2.92289822 4.30840713 1.96052484 7.63576723 -1 11 C-1.99 10.67 -2.98 10.34 -4 10 C-3.52449439 8.51965236 -3.04448784 7.04074979 -2.5625 5.5625 C-2.29566406 4.73878906 -2.02882813 3.91507813 -1.75390625 3.06640625 C-1 1 -1 1 0 0 Z " fill="#9F9E9F" transform="translate(1003,779)"/>
<path d="M0 0 C4.96916636 0.51405169 9.29026351 1.23384882 14 3 C14 3.66 14 4.32 14 5 C7.07 5 0.14 5 -7 5 C-7 4.67 -7 4.34 -7 4 C-2.38 4 2.24 4 7 4 C7 3.34 7 2.68 7 2 C4.69 1.67 2.38 1.34 0 1 C0 0.67 0 0.34 0 0 Z " fill="#F8BE5C" transform="translate(916,299)"/>
<path d="M0 0 C1.77049689 -0.05410687 3.54146849 -0.09284119 5.3125 -0.125 C6.29863281 -0.14820313 7.28476562 -0.17140625 8.30078125 -0.1953125 C11 0 11 0 14 2 C14 2.66 14 3.32 14 4 C12.04082341 3.9131252 10.08258129 3.80495488 8.125 3.6875 C6.48917969 3.60048828 6.48917969 3.60048828 4.8203125 3.51171875 C3.88960937 3.34285156 2.95890625 3.17398438 2 3 C1.34 2.01 0.68 1.02 0 0 Z " fill="#878687" transform="translate(943,780)"/>
<path d="M0 0 C-4.625 4.875 -4.625 4.875 -8 6 C-9.20882096 8.00016466 -9.20882096 8.00016466 -10 10 C-10.35915493 3.65492958 -10.35915493 3.65492958 -8.9375 1.0625 C-5.98831309 -0.55479605 -3.29132441 -0.18630138 0 0 Z " fill="#FBAF56" transform="translate(783,407)"/>
<path d="M0 0 C3.3 0.66 6.6 1.32 10 2 C9.67 2.99 9.34 3.98 9 5 C2.375 6.25 2.375 6.25 -1 4 C-0.67 2.68 -0.34 1.36 0 0 Z " fill="#A2A2A2" transform="translate(358,796)"/>
<path d="M0 0 C1.62463842 -0.05395478 3.24978541 -0.09277195 4.875 -0.125 C5.77992188 -0.14820313 6.68484375 -0.17140625 7.6171875 -0.1953125 C10 0 10 0 12 2 C10.79296875 3.55078125 10.79296875 3.55078125 9 5 C6.73828125 4.85546875 6.73828125 4.85546875 4.3125 4.1875 C3.10013672 3.86845703 3.10013672 3.86845703 1.86328125 3.54296875 C0.94095703 3.27419922 0.94095703 3.27419922 0 3 C0 2.01 0 1.02 0 0 Z " fill="#969697" transform="translate(907,780)"/>
<path d="M0 0 C9.24761134 0.94847296 17.38889722 2.31208488 26 6 C22.29229733 7.23590089 21.48973028 6.49559869 18 5 C13.22973848 3.92628134 8.38300883 3.29948543 3.546875 2.59765625 C2.70640625 2.40042969 1.8659375 2.20320313 1 2 C0.67 1.34 0.34 0.68 0 0 Z " fill="#FBB82F" transform="translate(917,284)"/>
<path d="M0 0 C0.33 0.66 0.66 1.32 1 2 C0.00390625 4.1640625 0.00390625 4.1640625 -1.4375 6.625 C-1.91058594 7.44226563 -2.38367188 8.25953125 -2.87109375 9.1015625 C-3.24363281 9.72804688 -3.61617187 10.35453125 -4 11 C-0.535 12.485 -0.535 12.485 3 14 C-0.57644848 15.2380014 -3.33694766 14.74926071 -7 14 C-6.34097701 10.42959697 -4.83770842 7.82267745 -2.9375 4.75 C-2.38964844 3.85796875 -1.84179688 2.9659375 -1.27734375 2.046875 C-0.64505859 1.03367188 -0.64505859 1.03367188 0 0 Z " fill="#3DB9DC" transform="translate(647,253)"/>
<path d="M0 0 C0 1.32 0 2.64 0 4 C-3.3 4 -6.6 4 -10 4 C-9.67 3.01 -9.34 2.02 -9 1 C-5.8035914 -0.06546953 -3.34252724 -0.07427838 0 0 Z " fill="#969696" transform="translate(428,789)"/>
<path d="M0 0 C1.90401138 1.90401138 2.93520439 3.33425686 3.19921875 6.046875 C3.1886578 8.03233273 3.09915043 10.0169914 3 12 C2.34 10.68 1.68 9.36 1 8 C0.01 8.495 0.01 8.495 -1 9 C-1.309375 8.05125 -1.61875 7.1025 -1.9375 6.125 C-2.87394742 3.13919592 -2.87394742 3.13919592 -4 1 C-2.68 0.67 -1.36 0.34 0 0 Z " fill="#9F9FA0" transform="translate(957,783)"/>
<path d="M0 0 C2.93847653 -0.107834 5.87301151 -0.18721916 8.8125 -0.25 C9.64587891 -0.28351563 10.47925781 -0.31703125 11.33789062 -0.3515625 C13.62620111 -0.38832251 15.74321261 -0.38495793 18 0 C20.07421875 2.015625 20.07421875 2.015625 21 4 C20.67 4.66 20.34 5.32 20 6 C19.113125 5.360625 18.22625 4.72125 17.3125 4.0625 C12.00081512 0.95670079 6.00511242 1.18060488 0 1 C0 0.67 0 0.34 0 0 Z " fill="#FCE2AF" transform="translate(884,298)"/>
<path d="M0 0 C2.62386487 3.06117568 3 3.73173127 3 8 C1.02 8 -0.96 8 -3 8 C-2.45276317 4.62537285 -1.9451 2.91765 0 0 Z " fill="#F2F2F2" transform="translate(857,785)"/>
<path d="M0 0 C3.3 0 6.6 0 10 0 C10 0.99 10 1.98 10 3 C6.37 3 2.74 3 -1 3 C-0.67 2.01 -0.34 1.02 0 0 Z " fill="#908F90" transform="translate(1136,789)"/>
<path d="M0 0 C7.26 0 14.52 0 22 0 C21.67 0.66 21.34 1.32 21 2 C20.16807129 1.98428955 20.16807129 1.98428955 19.31933594 1.96826172 C16.79627041 1.92657996 14.27327747 1.90063562 11.75 1.875 C10.87730469 1.85824219 10.00460937 1.84148438 9.10546875 1.82421875 C7.83896484 1.81455078 7.83896484 1.81455078 6.546875 1.8046875 C5.38430176 1.78897705 5.38430176 1.78897705 4.19824219 1.77294922 C1.74116461 2.02673444 0.12688458 2.77555848 -2 4 C-1.34 2.68 -0.68 1.36 0 0 Z " fill="#1D8FBE" transform="translate(689,607)"/>
<path d="M0 0 C0.33 0 0.66 0 1 0 C1.797837 6.69613196 2.12910853 13.25766581 2 20 C1.67 20 1.34 20 1 20 C0.87625 19.030625 0.7525 18.06125 0.625 17.0625 C0.41875 16.051875 0.2125 15.04125 0 14 C-0.66 13.67 -1.32 13.34 -2 13 C-1.34 8.71 -0.68 4.42 0 0 Z " fill="#9F5B4E" transform="translate(692,451)"/>
<path d="M0 0 C2.62386487 3.06117568 3 3.73173127 3 8 C1.35 8 -0.3 8 -2 8 C-1.125 1.125 -1.125 1.125 0 0 Z " fill="#EEEEEE" transform="translate(505,785)"/>
<path d="M0 0 C1.98 0.495 1.98 0.495 4 1 C3.74438677 3.3431213 3.40729228 5.67843403 3 8 C2.01 8.495 2.01 8.495 1 9 C0.34 8.67 -0.32 8.34 -1 8 C-0.67 5.36 -0.34 2.72 0 0 Z " fill="#919090" transform="translate(1120,779)"/>
<path d="M0 0 C0.66 0.33 1.32 0.66 2 1 C-9.15190454 6.10509408 -9.15190454 6.10509408 -13 7 C-15.16796875 6.0390625 -15.16796875 6.0390625 -17 5 C-16.02417969 4.72285156 -15.04835938 4.44570313 -14.04296875 4.16015625 C-12.75780249 3.794306 -11.47264679 3.42841864 -10.1875 3.0625 C-8.92292969 2.70285156 -7.65835938 2.34320313 -6.35546875 1.97265625 C-4.22498018 1.35508739 -2.10436108 0.70145369 0 0 Z " fill="#FBAB37" transform="translate(757,370)"/>
<path d="M0 0 C2.97 0 5.94 0 9 0 C9 0.99 9 1.98 9 3 C5.7 3 2.4 3 -1 3 C-0.67 2.01 -0.34 1.02 0 0 Z " fill="#8B8B8C" transform="translate(971,789)"/>
<path d="M0 0 C3.26008643 3.16952847 6.22237877 6.39937989 9 10 C8.401875 9.835 7.80375 9.67 7.1875 9.5 C4.88655664 8.8885876 4.88655664 8.8885876 2 9 C1.34 6.03 0.68 3.06 0 0 Z " fill="#2F72B2" transform="translate(553,405)"/>
<path d="M0 0 C-0.99 1.485 -0.99 1.485 -2 3 C-3.9453125 3.29296875 -3.9453125 3.29296875 -6.125 3.1875 C-7.40375 3.125625 -8.6825 3.06375 -10 3 C-9.67 2.01 -9.34 1.02 -9 0 C-2.25 -1.125 -2.25 -1.125 0 0 Z " fill="#909090" transform="translate(1068,799)"/>
<path d="M0 0 C0.33 0 0.66 0 1 0 C1 3.3 1 6.6 1 10 C0.01 10.33 -0.98 10.66 -2 11 C-2.05399736 9.54207116 -2.09279177 8.08357288 -2.125 6.625 C-2.15980469 5.40683594 -2.15980469 5.40683594 -2.1953125 4.1640625 C-2 2 -2 2 0 0 Z " fill="#838282" transform="translate(892,783)"/>
<path d="M0 0 C0.99 0.33 1.98 0.66 3 1 C3 2.98 3 4.96 3 7 C2.01 6.67 1.02 6.34 0 6 C-0.33 6.99 -0.66 7.98 -1 9 C-1.09765625 2.84765625 -1.09765625 2.84765625 -1 1 C-0.67 0.67 -0.34 0.34 0 0 Z " fill="#4DC4DB" transform="translate(745,242)"/>
<path d="M0 0 C-0.33 1.65 -0.66 3.3 -1 5 C-2.65 4.67 -4.3 4.34 -6 4 C-6 3.01 -6 2.02 -6 1 C-4 0 -4 0 0 0 Z " fill="#8F8F90" transform="translate(999,797)"/>
<path d="M0 0 C2.97 0 5.94 0 9 0 C9 0.99 9 1.98 9 3 C6.03 3 3.06 3 0 3 C0 2.01 0 1.02 0 0 Z " fill="#898989" transform="translate(1017,789)"/>
<path d="M0 0 C0 0.99 0 1.98 0 3 C-4.92737019 4.97094808 -8.78020872 5.1799928 -14 5 C-14 4.67 -14 4.34 -14 4 C-13.15695312 3.79503906 -12.31390625 3.59007812 -11.4453125 3.37890625 C-10.34960938 3.10949219 -9.25390625 2.84007812 -8.125 2.5625 C-7.03445313 2.29566406 -5.94390625 2.02882813 -4.8203125 1.75390625 C-2.07515279 1.1213522 -2.07515279 1.1213522 0 0 Z " fill="#414F7C" transform="translate(684,470)"/>
<path d="M0 0 C3.375 -0.125 3.375 -0.125 7 0 C7.66 0.66 8.32 1.32 9 2 C8 3 8 3 6.15234375 3.09765625 C4.1015625 3.06510417 2.05078125 3.03255208 0 3 C0 2.01 0 1.02 0 0 Z " fill="#8A898A" transform="translate(1085,791)"/>
<path d="M0 0 C1.32 0.66 2.64 1.32 4 2 C3.4225 2.268125 2.845 2.53625 2.25 2.8125 C-0.0325868 4.01719859 -1.9737942 5.40798115 -4 7 C-3.43628586 3.73045798 -2.50037734 2.17424117 0 0 Z " fill="#939393" transform="translate(1057,780)"/>
<path d="M0 0 C5.94 2.475 5.94 2.475 12 5 C12 5.33 12 5.66 12 6 C7.02693484 5.50269348 3.36200187 4.44697666 -1 2 C-0.67 1.34 -0.34 0.68 0 0 Z " fill="#3974B2" transform="translate(574,412)"/>
<path d="M0 0 C2.97 0 5.94 0 9 0 C9.33 0.99 9.66 1.98 10 3 C2.25 2.25 2.25 2.25 0 0 Z " fill="#59C2DA" transform="translate(755,259)"/>
<path d="M0 0 C-1.125 1.5 -1.125 1.5 -3 3 C-6.1875 3.1875 -6.1875 3.1875 -9 3 C-8.67 2.01 -8.34 1.02 -8 0 C-4.71023192 -1.09658936 -3.28696233 -0.79953138 0 0 Z " fill="#8D8C8C" transform="translate(400,799)"/>
<path d="M0 0 C5.445 1.485 5.445 1.485 11 3 C7 5 7 5 3 5 C1.25 2.5 1.25 2.5 0 0 Z " fill="#FAD898" transform="translate(902,299)"/>
<path d="M0 0 C0.66 0.66 1.32 1.32 2 2 C1.34 3.32 0.68 4.64 0 6 C-1.32 6 -2.64 6 -4 6 C-3.67 4.35 -3.34 2.7 -3 1 C-2.01 0.67 -1.02 0.34 0 0 Z " fill="#9D9C9C" transform="translate(850,796)"/>
<path d="M0 0 C-0.69867187 0.27714844 -1.39734375 0.55429687 -2.1171875 0.83984375 C-3.02726563 1.20207031 -3.93734375 1.56429688 -4.875 1.9375 C-5.77992188 2.29714844 -6.68484375 2.65679687 -7.6171875 3.02734375 C-9.96137667 3.94901262 -9.96137667 3.94901262 -12 5 C-12.66 4.34 -13.32 3.68 -14 3 C-12.42274653 2.29866401 -10.83788667 1.614417 -9.25 0.9375 C-7.92742188 0.36322266 -7.92742188 0.36322266 -6.578125 -0.22265625 C-3.84743691 -1.04600008 -2.63098653 -0.9773992 0 0 Z " fill="#FBBB31" transform="translate(867,291)"/>
<path d="M0 0 C-3.28463659 2.18975773 -6.20696275 2.99806563 -10 4 C-10.33 3.34 -10.66 2.68 -11 2 C-3.57142857 -1.57142857 -3.57142857 -1.57142857 0 0 Z " fill="#FBAF3A" transform="translate(771,367)"/>
<path d="M0 0 C1.32 0.33 2.64 0.66 4 1 C1.36 2.98 -1.28 4.96 -4 7 C-2.73033708 1.92134831 -2.73033708 1.92134831 0 0 Z " fill="#248BBE" transform="translate(642,345)"/>
<path d="M0 0 C1.65 0 3.3 0 5 0 C5.33 0.66 5.66 1.32 6 2 C6.99 2.33 7.98 2.66 9 3 C8.67 3.66 8.34 4.32 8 5 C5.36 4.34 2.72 3.68 0 3 C0 2.01 0 1.02 0 0 Z " fill="#4CC1DA" transform="translate(728,260)"/>
<path d="M0 0 C2.64 0 5.28 0 8 0 C8 0.99 8 1.98 8 3 C5.36 2.67 2.72 2.34 0 2 C0 1.34 0 0.68 0 0 Z " fill="#8B8B8B" transform="translate(1085,780)"/>
<path d="M0 0 C2.64 0 5.28 0 8 0 C7.67 0.99 7.34 1.98 7 3 C4.69 3 2.38 3 0 3 C0 2.01 0 1.02 0 0 Z " fill="#8B8B8C" transform="translate(907,780)"/>
<path d="M0 0 C0.99 0.33 1.98 0.66 3 1 C2.67 2.32 2.34 3.64 2 5 C0.68 4.67 -0.64 4.34 -2 4 C-1.34 2.68 -0.68 1.36 0 0 Z " fill="#9D9D9D" transform="translate(825,780)"/>
<path d="M0 0 C1.32 0.66 2.64 1.32 4 2 C3.01 3.485 3.01 3.485 2 5 C0.68 4.34 -0.64 3.68 -2 3 C-1.34 2.01 -0.68 1.02 0 0 Z " fill="#979797" transform="translate(603,780)"/>
<path d="M0 0 C0.99 0.33 1.98 0.66 3 1 C3 3.31 3 5.62 3 8 C2.67 8 2.34 8 2 8 C2 6.35 2 4.7 2 3 C0.35 3.66 -1.3 4.32 -3 5 C-2.01 3.35 -1.02 1.7 0 0 Z " fill="#865D64" transform="translate(689,464)"/>
<path d="M0 0 C2.43929746 1.92576115 4.80090595 3.80090595 7 6 C6.67 6.99 6.34 7.98 6 9 C4.99406757 7.8803014 3.9954151 6.7540588 3 5.625 C2.443125 4.99851562 1.88625 4.37203125 1.3125 3.7265625 C0 2 0 2 0 0 Z " fill="#358FC2" transform="translate(549,393)"/>
<path d="M0 0 C0.99 0 1.98 0 3 0 C2.67 2.31 2.34 4.62 2 7 C1.34 6.67 0.68 6.34 0 6 C0 4.02 0 2.04 0 0 Z " fill="#8C8B8B" transform="translate(890,779)"/>
</svg>
